<mxfile host="65bd71144e">
    <diagram id="eyQFXxV3wlo_wogNDtbe" name="Page-1">
        <mxGraphModel dx="704" dy="496" grid="1" gridSize="10" guides="0" tooltips="1" connect="1" arrows="1" fold="1" page="1" pageScale="1" pageWidth="827" pageHeight="1169" math="0" shadow="0">
            <root>
                <mxCell id="0"/>
                <mxCell id="1" parent="0"/>
                <mxCell id="2" value="" style="shape=image;imageAspect=0;aspect=fixed;verticalLabelPosition=bottom;verticalAlign=top;image=data:image/png,iVBORw0KGgoAAAANSUhEUgAAAW8AAALqCAYAAAD6qdXiAAAKrmlDQ1BJQ0MgUHJvZmlsZQAASImVlwdQk9kWx+/3pTcCJCAgJfQmSCeAlNADKEgHUQlJgFBCCAQUu7K4giuKiBQVKasCCq5KkbUiihUBRbAuyCKirIsFG5b3AUPY3TfvvXln5s75zfnO/d977tw7cz4AKLIckSgJlgUgWZguDvRyZYRHRDJwI4AASAAP9IAyh5smYgUE+AHEZv3f7f09AE35OyZTWv/+/b+aHI+fxgUACkA4hpfGTUb4FDJecEXidABQB5G4dma6aIrbEaaLkQ0i3D/FcTM8NsUx04wG0znBgW4I0wHAkzkccRwAZAYSZ2Rw4xAdsgvCZkKeQIiwCGGn5OQUHsLHETZAcpAYeUqfGfMXnbi/acZINTmcOCnP1DJteHdBmiiJs/r/PI7/bclJktk19JBBjhd7ByJeHjmz/sQUXykLY5b4z7KAN50/zfES75BZ5qa5Rc4yj+PuK52btMRvlmMFnmypTjo7eJb5aR5BsyxOCZSuFSt2Y80yRzy3riQxRBqP57Ol+lnxwWGznCEIXTLLaYlBvnM5btK4WBIo3T9f6OU6t66ntPbktL/UK2BL56bHB3tLa+fM7Z8vZM1ppoVL98bju3vM5YRI80XprtK1REkB0nx+kpc0npYRJJ2bjlzIubkB0jNM4PgEzDLwA16AAbyBOwhEvBVAqk/nr0qfKsQtRbRaLIiLT2ewkBfGZ7CFXNMFDAszC0sApt7rzHV4Gzj9DiHFc3OxlGrkGr9H3siuuVhMIQDNOQAoPZiL6RwAgJoNQFMbVyLOmIlNvyUMIAIqoANloA60gQEwARbABjgAF+ABfIA/CAYRYAXggniQDMQgE6wFm0AOyAM7wR5QCspBFTgCjoEToBmcARfBFXADdIFe8BAMgGHwEoyD92ASgiAcRIFokDKkAelCxpAFxIScIA/IDwqEIqBoKA4SQhJoLbQFyoMKoFKoAqqBfoFOQxeha1A3dB8ahEahN9BnGAWTYTqsBuvBC2EmzIJ94WB4ORwHp8JZcDa8Ay6GK+GjcBN8Eb4B98ID8Et4AgVQJJQiShNlgmKi3FD+qEhULEqMWo/KRRWhKlH1qFZUB+oOagA1hvqExqJpaAbaBO2A9kaHoLnoVPR69HZ0KfoIugndjr6DHkSPo79hKBhVjDHGHsPGhGPiMJmYHEwR5hCmEXMZ04sZxrzHYrGKWH2sLdYbG4FNwK7BbsfuxzZgL2C7sUPYCRwOp4wzxjni/HEcXDouB1eCO4o7j+vBDeM+4kl4DbwF3hMfiRfiN+OL8LX4c/ge/Ah+kiBL0CXYE/wJPMJqQj6hmtBKuE0YJkwS5Yj6REdiMDGBuIlYTKwnXiY+Ir4lkUhaJDvSUpKAtJFUTDpOukoaJH0iy5ONyG7kKLKEvIN8mHyBfJ/8lkKh6FFcKJGUdMoOSg3lEuUJ5aMMTcZUhi3Dk9kgUybTJNMj84pKoOpSWdQV1CxqEfUk9TZ1TJYgqyfrJsuRXS9bJntatk92Qo4mZy7nL5cst12uVu6a3HN5nLyevIc8Tz5bvkr+kvwQDUXTprnRuLQttGraZdowHUvXp7PpCfQ8+jF6J31cQV7BSiFUYZVCmcJZhQFFlKKeIlsxSTFf8YTiPcXP89Tmsebx522bVz+vZ94HpflKLkp8pVylBqVepc/KDGUP5UTlXcrNyo9V0CpGKktVMlUOqFxWGZtPn+8wnzs/d/6J+Q9UYVUj1UDVNapVqjdVJ9TU1bzURGolapfUxtQV1V3UE9QL1c+pj2rQNJw0BBqFGuc1XjAUGCxGEqOY0c4Y11TV9NaUaFZodmpOaulrhWht1mrQeqxN1GZqx2oXardpj+to6CzWWatTp/NAl6DL1I3X3avboftBT18vTG+rXrPec30lfbZ+ln6d/iMDioGzQapBpcFdQ6wh0zDRcL9hlxFsZG0Ub1RmdNsYNrYxFhjvN+5egFlgt0C4oHJBnwnZhGWSYVJnMmiqaOpnutm02fTVQp2FkQt3LexY+M3M2izJrNrsobm8uY/5ZvNW8zcWRhZcizKLu5YUS0/LDZYtlq+tjK34Vges+q1p1outt1q3WX+1sbUR29TbjNrq2Ebb7rPtY9KZAcztzKt2GDtXuw12Z+w+2dvYp9ufsP/TwcQh0aHW4fki/UX8RdWLhhy1HDmOFY4DTgynaKeDTgPOms4c50rnpy7aLjyXQy4jLENWAuso65WrmavYtdH1g5u92zq3C+4ody/3XPdOD3mPEI9SjyeeWp5xnnWe417WXmu8LnhjvH29d3n3sdXYXHYNe9zH1medT7sv2TfIt9T3qZ+Rn9ivdTG82Gfx7sWPluguES5p9gf+bP/d/o8D9ANSA35dil0asLRs6bNA88C1gR1BtKCVQbVB74Ndg/ODH4YYhEhC2kKpoVGhNaEfwtzDCsIGwheGrwu/EaESIYhoicRFhkYeipxY5rFsz7LhKOuonKh7y/WXr1p+bYXKiqQVZ1dSV3JWnozGRIdF10Z/4fhzKjkTMeyYfTHjXDfuXu5LnguvkDfKd+QX8EdiHWMLYp/HOcbtjhuNd44vih8TuAlKBa8TvBPKEz4k+iceTvyeFJbUkIxPjk4+LZQXJgrbU9RTVqV0i4xFOaKBVPvUPanjYl/xoTQobXlaSzodaYxuSgwkP0gGM5wyyjI+ZoZmnlwlt0q46uZqo9XbVo9keWb9vAa9hrumba3m2k1rB9ex1lWsh9bHrG/boL0he8PwRq+NRzYRNyVuurXZbHPB5ndbwra0Zqtlb8we+sHrh7ocmRxxTt9Wh63lP6J/FPzYuc1yW8m2b7m83Ot5ZnlFeV+2c7df/8n8p+Kfvu+I3dGZb5N/YCd2p3DnvV3Ou44UyBVkFQztXry7qZBRmFv4bs/KPdeKrIrK9xL3SvYOFPsVt5TolOws+VIaX9pb5lrWsE9137Z9H/bz9vcccDlQX65Wnlf++aDgYH+FV0VTpV5lURW2KqPqWXVodcfPzJ9rDqkcyjv09bDw8MCRwCPtNbY1NbWqtfl1cJ2kbvRo1NGuY+7HWupN6isaFBvyjoPjkuMvfon+5d4J3xNtJ5kn60/pntrXSGvMbYKaVjeNN8c3D7REtHSf9jnd1urQ2vir6a+Hz2ieKTurcDb/HPFc9rnv57POT1wQXRi7GHdxqG1l28NL4Zfuti9t77zse/nqFc8rlzpYHeevOl49c83+2unrzOvNN2xuNN20vtl4y/pWY6dNZ9Nt29stXXZdrd2Lus/1OPdcvON+58pd9t0bvUt6u++F3Ovvi+ob6Of1P7+fdP/1g4wHkw83PsI8yn0s+7joieqTyt8Mf2sYsBk4O+g+ePNp0NOHQ9yhl7+n/f5lOPsZ5VnRiMZIzXOL52dGPUe7Xix7MfxS9HJyLOcPuT/2vTJ4depPlz9vjoePD78Wv/7+Zvtb5beH31m9a5sImHjyPvn95Ifcj8ofj3xifur4HPZ5ZDLzC+5L8VfDr63ffL89+p78/buII+ZMtwIoZMCxsQC8OQwAJQIAWhcAxGUz/fS0QTP/ANME/hPP9NzTZgNAVR8AwWsA8LsFQEkp0s4i+tQoAAKoSNwBwJaW0jHb+0736VOmjvwnZOKmqOu600bwD5vp4f+y7396MKVqBf7p/wW9BgWbhz2jeAAAAFZlWElmTU0AKgAAAAgAAYdpAAQAAAABAAAAGgAAAAAAA5KGAAcAAAASAAAARKACAAQAAAABAAABb6ADAAQAAAABAAAC6gAAAABBU0NJSQAAAFNjcmVlbnNob3RmPm4+AAAB1mlUWHRYTUw6Y29tLmFkb2JlLnhtcAAAAAAAPHg6eG1wbWV0YSB4bWxuczp4PSJhZG9iZTpuczptZXRhLyIgeDp4bXB0az0iWE1QIENvcmUgNi4wLjAiPgogICA8cmRmOlJERiB4bWxuczpyZGY9Imh0dHA6Ly93d3cudzMub3JnLzE5OTkvMDIvMjItcmRmLXN5bnRheC1ucyMiPgogICAgICA8cmRmOkRlc2NyaXB0aW9uIHJkZjphYm91dD0iIgogICAgICAgICAgICB4bWxuczpleGlmPSJodHRwOi8vbnMuYWRvYmUuY29tL2V4aWYvMS4wLyI+CiAgICAgICAgIDxleGlmOlBpeGVsWURpbWVuc2lvbj43NDY8L2V4aWY6UGl4ZWxZRGltZW5zaW9uPgogICAgICAgICA8ZXhpZjpQaXhlbFhEaW1lbnNpb24+MzY3PC9leGlmOlBpeGVsWERpbWVuc2lvbj4KICAgICAgICAgPGV4aWY6VXNlckNvbW1lbnQ+U2NyZWVuc2hvdDwvZXhpZjpVc2VyQ29tbWVudD4KICAgICAgPC9yZGY6RGVzY3JpcHRpb24+CiAgIDwvcmRmOlJERj4KPC94OnhtcG1ldGE+ConogYcAAEAASURBVHgB7F0FfFPXFz5t05ZSnFLc3d0dhrsM2xg+JszZGBvMN7b/mAOD+diGuzvDZbgMl+JSpFhL9X++m97sJaRtUpLSpufwS59d/d7Ld8/97nnBKzh/sTgSEwQEAUFAEEhTCHinqdZKYwUBQUAQEAQUAkLe8iAIAoKAIJAGERDyToM3TZosCAgCgoCQtzwDgoAgIAikQQSEvNPgTZMmCwKCgCAg5C3PgCAgCAgCaRABIe80eNOkyYKAICAImB4WgjivaIqjGCKvWPLiwrz4Dz4+XnHkjRPkTTGxJoqJfuiqHrapkl8QEAQEAY9BIJmMGkdePvfJ5BvLtO1DcXFxFBdL6gNkNIn7cOm+vnFkMsVyqhi6d4/oXrg3k71idY8BUToiCAgCgkBKI+A0eXt5R5Ffhlgm4DiKxbuZ9t7PZG72YvcbHrh2xX3YDc+a1ZuyZPGim2ExFB4hik1K32ypTxAQBDwHAacY1NsUSX4Zma2ZlOE9s8Nt15i2zecVgZtJHEQOQjeZvCgopy9lzZxAZrslyklBQBAQBAQBIwIOk7eXKYJM/uxvQyKxlBBP0pbj/3aU5/3fIXmx5+3FtZlJPI69cB/KnpW1FjFBQBAQBAQBpxFwiLxjvSPIy8TLkszakEqUZs1M7OXtTd78AaHH8gVF7LwfHR3NDTETe2wsFjLN+/gLUkcefDJnNrEHLgTu9F2TDIKAIJDuEUiSvGMpkryZuEHaZoKGXPLfJzoakSZmQgYxw0DMZg8bkgnSwlcHSfOWo1BUsvhtFtbBAzJwGWKCgCAgCAgCDiPgE5gl+3sJpY7jEJJY032KY6KFJ609aKSPiydqpMFVxcucwpvlER8fb5ZFMpOfP9ZDOdrEx4ewYIlr3pzPLJ8w0YPAOYWfP9GduyjETP7YSy1WokQJKl6iOPmafCksLMytzapatSoVLFSQ7kfcp/DwcF7czUL/G/s5VatWjTZs2ODWuh9F4ZkyZaIcOXNyFNK9+AE+4VbkyZtXOQX379+3mwgOQ+48edS1yMhIu2nsnfT396dcwcGEPDExrnci7LWrdJnS5M8P/e3bt+01yXLOGXwsmWQn3SCQqOcdTffZX+Z/7HbHgsghjzAZq1gT7CuPmumZpRHIIz4mH8qWPTsVLFiQqlSpStWrVaciRYqQN5O54npwM3/iN8orh2eORczAQNd/cVxxFyf+MIl+/OknGvvlF64oLtEyfvntV1XX4CFDVLphL7xAjRs3ph49e1DtOnUSzZsWL46fMJ6WLV9G5cqVS7T5OZngke73yb8nmA5lIA3KdMZefuUVle/Jvk86k83htLbtKla8GE2fMYMWLVnMz33iwV6O4uNwYyShRyGQKHnHebN2rURupmsmZ7OmbT4FsmbGVt5KDK7xvwwZMlAhJu569epR586dqV+//tS6VWvllZtRg49uXvBU3jw8+vhPlsygdDEjAps2blSYR0VF0eHDh42XPGNfjehJdwWL3Z5i169dJ9zPW7duxa8NJdIzB/FJpAS55MEIJDj0R8VEkw9r2z7EBM5vT8Z5m/jjS/f9fFkyIQrgKWaW+zEU6hNLUbEx5Mtv5Nznqee58+cpg68flS1ZigrmzUd5c+SnTP5ZOa77LnvsZuVbud48bEBy4T88MPCHH1Q/vxievvp4MNzOdW3dunVUv249ioiIUDMb53JL6tSIwM2bN6lm9RqpsWnSpjSGQMLk7R3LL7Z7KcfbC96xN8saTNR4HR4Wx4QeyZ45VGuTyY/J2481SV+KjoqlS5euska7mfP7kJ+vD/mbAigy7o6ZpLmoWAwGcNw5t9mzZ/JmEvflhVFXkHer1q2oa7duPAsoRHfv3aUjh4/QV199SaFXQ1Xba9aqSUOHDlX7I94YQS+/8jJVq15dac1Lliyhn378UV1L6E+FChVUHlxfv349Tf59Mn319VccPZOZ5s2bR4sWLrJkHfPpGMqVKxetWL6CZvB0WVvnLp2pXbv2FJw7mPbt3UtjPhmjL1m20MCfH/a8On7+uecJeu+HH31IeVn/XbtmLb/sdJN69OihtN6QkBD64L336TwPnkZDXzt27EhVWTeHxrp502aaOXMmXbp4USX7+JNPKDe34ciRo/T5//5nyVqmTBka/vpwdfz1V1/TgQMHLNeMO5j69+vfn2Wyyvwc+NKePbtp6pSpyrM0psuaLRt169ZVzcouXLhA48clLG/UqlWLunXvzusmWWj16tW0du1aY1FO7VeqXJmAddGiRSnkdAitXLGCNm3aZLeM6jVq0JNPPsEzyADCc7CUP+bIKbvJLSfR1gYN6lPGwEA6sP8A/fLLz3TXvIhjSWPcGfHmmxQaGko/sxynzRl8srM0iTpr165N+/fvpzmzZ9O5c+d0UbJNJwgkTN5MpGq2GudNvkysvB7E5B1NAXghPpYXHpl4I0HoZCI/Uwb++PPCpC+n86coXi8KCblA/wYdozy5c1H2nEEUcfsySyzR+BUUJZXEsqcN8oZsruQY9r69ffjgIe1zXuBr0bKlVSlYdHysxWPUu1cvOnniJFWoUJFq1Kyp0kyfMZ2CmFy1DXthGBXiRcN3Rr+jT1lt8+fPT9Cm/fz81ELbm/xFhDVibdqHF2avXLliRd7NmjcnLIpFMPFq8v78i7HUokULS7mFCxemho0aqTUAy0negV6q2xkQEKDIu/ljj1HGjBmpRMmSlI0JUVseXqybv3ABNW/WnMLYu4M92bevhYB1urJly1Lfp/pS185d1BceC6SVKlVSg9cXY8daPPz+AwZY6j6bADEE5QqiefPnExbWtNWtV5ee6tePHu/WnUDSMOi8M2fNUvjodO07dFAEpo/1dvz3E6h+/fr6kOrUrUs9+b4lxzD4AANtGAxB5NOmTqVPx3yqT6ttBx7gXnzpJcs59OOVV1+hlo+1SJDAsRg5Z95cKlKkiCUfCPUJHgB69+xFp06dspw37vTq3UsNbpq8ncGnYaOG9O1331meFQzOAwcNpA8/+JBmM8Zi6QeBhDVv9rL516XI5O1DASyZZGYmz8Kedu7YKMoXG0052HX2gnfOoSO+vv7sNWfgL2cG3gbyb55kZF3Pmy5evMZkdp2CgnJTBqZqv5goMjGBeyG8kD8x0bG84U80x5AjiJw98ocxRCRo4gZJf/zRR7RwwQJVJAh0SPxCoLEORDvMZ295y+YtahDBtXbt2xuTWPbhHc2YNVMRN7xgEJT25i2JkthB+zRxo4wlixfT9u3brYg4iSLUZRA3vO0Z06fTtWvX1Dl4wc8/b/bU4UVqz/nOnTv04w8/KCwwUGLgmTp9msrzx+Q/1BZE1KLlfwNKnbrmBVLUoQcDldDw56233lbEvW/fPmrXpi093v1xOnbsGC8+B9Jz8e1A8sl//KGIGxh3aN+BBg0cpAa5YI7yMNoTTz6piBua8Mg3R1LTxk1UuzH4OmuI1EF5WJsZ8cYbVJ/XYUBw6D8GA/TXaPDMdfsG9h/As8dLlCNHDvp+4kRjMqv9Vq1bK+LGIIXy69WpS6tWrVJrP2+MGGGVNrEDR/HJly8fff3NN4q4v+Vtk0aNLX0aNXoUJQenxNol11I3Agl63gFM0F5MzIHseWdnTzuQydfkE0NB7CFnjPWmMPacw73jKIqlEbPHbWIi9+Opc0b2oH2Z2L0oMiqO7vPHP0Mge+zRZIqLsUgxMV4+rJh4sSdu9r7N8snDgXXzxg169plnVCHbtm5TX9yZM2Yq7w3SBeQOW/ti7Bf0159/qtP4osLjggcNojaSFsIdZ8+epYgJ5AIv3laisC3b3nHbtm3UaZBIv75PWRYi3x41ih7v8bi9LHbPgZA7deioro37bhyt32gOJSxR0kx0nTt3stTTu1dvOnvmjDpGuCO8UUg8BQsVUjJCZOTHitC7dOlCy5ct55lIkGUwmTNrtt36cRKD43fffqsGEbWAzefeGvkWe9kzqWKliiofCAWeeejVq5Z7g7b06tGT1vy91opEO8W3edTbb6t2oADIK4UKFSZIYc4Y8MHsAguDenCDZwqvtyTPWiqznLJ7925LkZgx6WcH7YPnvHrtGqpStYolje1O+fLmKJkznF7LJMNffY0wk0L9jpgz+HTs1Ek9m/PmzqNffv5FFY8+YaYI6QqzirGfj3WkWknjAQgkSN5ZIlnUMHlTNibqXOwVZ2cvPJMvURF2mrPEeNEFPj7HxBvGHrg3e+fe7J17s4Ti65tBaeBQtGOY+MMjYygq/C6Tfwx5+flQOJM9XtWMjfOhKN7GMImpl3+waPmQqgkW9vbu2UuDBg9mD3QYZc+RnSA3wIOCQZO1tWVLl1pOYYEQ5A3LzIRjJO+ixYpZ0r3JXhU8++SY9o5AosYIEujszpD3iePHLdWDoKBng5AR8QOryFIIDPVo4sbx9OkzLFJCs6ZN6ffff1eef4MGDahyFTNRQUeHgZCnssSQkIEUQcwvvfwyIXYZmMHjhfn6mrGuz+XCduzYqbb6DxbuLl+6THnz5dWnqECBAsozxgBitIULFzpN3mg7Zg2YRTVq3Ihnf0GqrSBuGJ4Lo23ftt14SDfYEYAujdkBNGYc2xpIFN59HQ7j3LRls3r2Fi9eRIsXLbZNmuCxM/hU53UZGPrzx19mhwPHkMxg+v6pA/nj8QgkSN4mjiCBnh3ABIyfIAniWWY2ljWKM8MGs9fszx8/usOEzR45e9l46cDknVHJJ35464bPZ8iYSZFzSMhpKsiSScbAAPa+mdAjoilCEbX5TU3EkOOtzVhIJw9hmFbOnjvH6ouZ1IsXd+/etdQYERFu2U9sZ+TIkWrBUHubiaW1vYZFLRheTDGa9g6N5xLbR2SP0Wz7qXXo8HvWfbrKHqY2yEwwDBwgbxBayVKlLLIOBpfEXniBt4fFXv0WLdJiVmI0rBHA4NnaWtitMCvyhrRlb4HwfAKau215xmMMIngWMOOCodzE+nL58mVjdrWPgQ/kXbhIYbvkfZwH0EEDBtLwN14nLPDWq8/SCX/eefdddT6hRV5jRc7gg8VtWNasWdW6hy5Hv9lsDzudRraeh4C18GfoXxSTbzQvIMbyCzb8Dg2TNcdxe0dSTi/WvDlXDj4Zyf9i46JYr2Ytm1/QCeCFNBOHCbJYToGZMqv9O0yOoddCyTcmkgLZ6c7ARI8RwwtuNhO2etWeZRl2lFgDNzQgGbv9B/S3EDf0zRr8klD1qtVYezdHViSjSKss69etV8dY4Pzsf59ZXYMMAoMUYTTtgepz586eVbuaVPR5LHS50k6eNM8McgbltCpWL4Di5ObNm9S1Pbv3kB7E+vTpw2RVRJ2f8tdfapvQn2efe1YR9ycffazC32rXrEU9WPc22u5du9QhPHNbQ9SM0eDdAq/ATOYBTl9DJJCzBl0bGEPagryEZwGaNKJB7BkWcm1Ne7T79u6zvWQ53sX968OyVDV+KW3o00PVjAyDEN6MdcScwefo0aOqyPc5qqhOrdqWD3CvUqkyDejX35EqJY2HIJAgeUfwgs5d/k8UwnnhMpK17WgOEYxl8vZlws7I2jdmxbdZCmGKZ48mgomX1W8QPceB+/LDmyFjAN3hML0LvPATEXmfKDKcvJGGPXpvMDXLJKy6qA94D4cxLMc8jBVirREGIl2+bJnythC5oL+ED1M2FuJe5DcetQeJhcc2bdpYitQaJzwwfGDvvPeulaaLcwjtgoGkEDWALzpmDGM++1Sdd9UfLQNgcXLU6NGqWNT13vvvWarAAp02hB7COnbqqNoML27J4iX68gNbLPhBooHHP4t1V+31GRcqkUmH5dXgBVTIItoQ3QEP0mh6wPnoo48sp1HPs8+a1zEsJx3YKVW6lEqFPkI+gUHLL1PWfG/UCcOf2nVqk/aCcRr6MmQoyFEJzbAQxvnr779ZdPFtW7dSf460gSGvI+YMPtu3bVNFDhky2Oq5asLyFxagn+r3lCNVShoPQSBB2SSGQ/7CfaLoLpPtbY4quc2RJhBDIvgT48shf0zS95iT8cJOxP0ICrsdxguVgbw4mZkfXI7rjoqgcxdC6NLlc5SRh4h7kVEUwL/ZEcUDAeSRGPa246B/M2mDbNWLOrE+7MklH9mVK1Yq/RHTSCzgQZrQ8kHyS7XO+RQvMi7mV5uxqPnhxx8RPC9MueGdQYsEKU/j8EN84W0jGlDShPETqEvXrmrhE+m3/WOttVrXlvyj3379lWOBu6mY8O6Pd+c6u6j26Ck2YtM14aIWRKO079Be9QvHO3fuTJC0cB39wyIkZiGLly6hfzhipiyHNmpNGWlg0OPXrF5DzZo3U2F1u7jcQNbGsXiM+67bg7SYLc2bP4+aNmtG8xbMp1M8e0B8ui3JI21Shrh6RPWg39DVIzmypx4P5Am9ko57NZfrRvsgbVWsaF5wRfhkQhbDkVIIP8TPJ6CPV69eobbt2qnkiKd3xJzBZzYvHiOEE7O7VWtWq2cva5asHNJZQ+GIeHyx9INAgp63iZcYA8P9mGij6GKGe/RvZh8K8QmisxlNdDFHNN3OFkk+HA4Y6eXLi5C8cBlxh85fOUkHDq2jbTvm0J59y+jipcMUFX2ffyHFn/ZnzEenfXLSzZiMFBHDC5e84HmPSTYuxpv8o31YVsGPVrE7/xCGlXeE3oEU8GUEccNj1p4XDxGqdKMnhbTasHCqzXI+/jp+HgCGl1vefecdtQ8iQMw37FX+jQxdD45R/8qVK9XbkTjW+TGgIMpEe/C4Bu/1qy++VO3GsW6fbi/O/dcyHJkHPPOe9V9dD4i5W5eu6gUllI/BBkSJH7xCnPOXX3xhlRFtxwKdNpB/UjZk8BDCwiPkD3iqxXhR95uvv1HZLPjxEbBBOCTagLhtECNmIHoWon8jBwurr3G0BsosUqSIInHEtNvGZNtrly5D3068jIPnAfcBsy8MCFd4kMVgC9PY6nYiKglEivYh7h1hnL/+8gthUTIhm/j99zR3zlzVL0TDIIoHIZy47yPj4/9t26XL0vXi2FF88FwgPPXokSNqQHuMY/4R5417OnrUaILnL5Z+EPAKzl/MlhcsvY+OjeBX3SMpwBROGfy9qCBHa7fwukvlcvjRUY4u+fT4bbrlm5m/CCb2ofn1dnakMweaqEjhPHSGF5nCwu7zlycL+ftm4fd7rlDRgIyUgR/AW+yVh7JmfieWQwvvs9TCnvg9JhiOBLfU/TA7+MIW5xC1yyzZ4AuZkgayKV26tBo0tJSSUP3QdnPnzk2nT522EHZCaR/2PBYib9y47nRcuiP1IhoDHjgiYPTAk1A+aN94G1CH1iWUDmVi0dE4ICaUNrHzeBZKlirJxH3F7qKjbV5IKxn8Mzj9xiIkIfy+vTGyx7ZsR44dxQdl4Z5e54gfZxe7HWmHpEn9CCRK3vAOvLzvMIEzeTOv5o3zp2b+EVSKyfsYh/p9feIeRfoEqF56e8VwmjjKE5yJ32ZsQFu3budpL79VGZ2Jf687BwXhf865z5EIrIPfBnnza/N3Ylkfv88/F8vkHc7/w/xDaSapH2tpoSAgCAgCLkMgQdkENWCaHcPecQzC+DjeO4LD/G6wJn2Vfe0b7Gnf598y4R8q4RcjmeTjojls8D7/lkkUe945+f+p5FfmffkVHPbevfjlnNx5+C1LXsQEQUOAiIlDHDjivflFHixU8nkxQUAQEAQEAccQSJS8UYSPF2JvA5iATRTlZaLrLLJcZunjBhN5NL9RGcfec1yMiQmci2ISj47i3wCP5v99h7nYz9ekXq+P4Vfho6KY3HlaaeIFPfy+t5peM3Hj1fhYlmDEBAFBQBAQBBxHwCHWjIvLxD82xS+zZPTlqBMvusQEfSUanjLCoaB2sxfNBB3N0klMlC/duHafChcszfs56NyZu6x989tuvBhVgGPA/Tk/Fq7YpacYjlbBK/VigoAgIAgIAs4h4BB5o8h7MYHkd59/bzujD93lF3XuswfuDW8bxr+Bwu9Ygo95ASWali7brN60u3eXpZUIPh/DPxUbE0Fx8Lo5LSSSqEjWu2PMerm5EPkrCAgCgoAg4CgCDpM3CrzJ/1HCibBAKh2MyBD2oPkN+lgf/r//WBMHfXtztEh4RCSdOHGZUzO7s+TizXHdvr78v8WzRALSjmTJ5eIdHyZ08bgdvUmSThAQBAQBWwScIm9kvh6Rgbaf9aPsAfwTUxwlEu3Lv9HBkScUxzHh2DKBx7GEYpaxsRDJi5b8gg9zNl0Mi6Swe/glQSFu2xshx4KAICAIOIOA0+SNwvFrgaH3+G1KvFMTza9IMzmzD86+tg+/aMKhfyYmcvz3aUzYCDeM4tfivWMD6ToyiwkCgoAgIAg8NALJIm9jrf5e/CNCrIhYDOuYHF5oMeM1y0nZEQQEAUFAEHgYBJIMFXyYwiWvICAICAKCgHsQEPJ2D65SqiAgCAgCbkVAyNut8ErhgoAgIAi4BwEhb/fgKqUKAoKAIOBWBIS83QqvFC4ICAKCgHsQEPJ2D65SqiAgCAgCbkVAyNut8ErhgoAgIAi4BwEhb/fgKqUKAoKAIOBWBIS83QqvFC4ICAKCgHsQEPJ2D65SqiAgCAgCbkVAyNut8ErhgoAgIAi4BwEhb/fgKqUKAoKAIOBWBIS83QqvFC4ICAKCgHsQEPJ2D65SqiAgCAgCbkVAyNut8ErhgoAgIAi4BwEhb/fgKqUKAoKAIOBWBIS83QqvFC4ICAKCgHsQMAUG8v+EIyYICAKCgCCQphAwZc2WLU01WBorCAgCgoAgwP+3e+bsueV/mZQnQRAQBASBNIaAaN5p7IZJcwUBQUAQAAJC3vIcCAKCgCCQBhEQ8k6DN02aLAgIAoKAkLc8A4KAICAIpEEEhLzT4E2TJgsCgoAgIOQtz4AgIAgIAmkQASHvNHjTpMmCgCAgCAh5yzMgCAgCgkAaREDIOw3eNGmyICAICAJC3vIMCAKCgCCQBhEQ8k6DN02aLAgIAoKAkLc8A4KAICAIpEEEhLzT4E2TJgsCgoAgYHIWgjr1GlKBgoUeyLZ18wY6d/bMA+flhCAgCAgCgoDrEXDqJ2G793zCLnHrZm3dvJFA4mnF8uXLR3fu3qVbYWFppclubWdQUBDlz5+f9u7d69Z6pHBBQBB4eASc8rztedzGJtSp14C97xDjqQT3H7WXDqJau349nThxgtq2apVgO9PThVVr11JAQAANGjCANm5IO4NwerpH0ldBQCPgFHnrTIlt4Z07Yo/aS/fy9ky5f/2mTRQTHU1NGzd25DZYpbly5QoVyF+ALl28aHVeDgQBQSD1IeBy8na0i/DS05LE4mi/HnW6oJxBFBsXm6xmtGzePFn5JJMgIAikPAKPjLxTuqt16talnr16UdasWWnFihW0etWqBJvQoGFD6ta9O/n7+9OihQtpxfLlFM3eLOyDjz6i69ev09dffmmVv1r16tSd86xcuZLWrlmjrkGa6dKtGzXk8s6fP0+r+Jptvd48A6jfoAF16NiRcnL6NdyuhVynUYdv2qwZtWjRgiZNnEjVa9SglizzmEwmWsVpp02ZouqqXLmy6p+3jzd5xXnRJ2PG0I2bN+nzzz6ztBN1NGOCDsqVi/49cIBmzphBx48ft1x/qn9/KlWqFI166y11buCgQVSocGH636efUj++VrdePbpx4wZN+esv2rZ1qyWf3kkMN6R574MP6OyZM7SZZwd9+/WjYsWL02CWaO7cuaOLkK0gIAg4iIBTC5YvDx/pYLGOJft67BjHEj5kqp9++YUaNmpkVcqxo0epJBOVrea9hIm6OJOK0UKvXqXGTMAg8O07dhD+0+ZmTZrQ+XPnLMlmzp5NlZhAR44YQXN4H4T7/aRJ5OXlZUmDnU0bN9JAJkIYiHvJsmVUtFgxdaz/oJ5O7dtbiPXbceOoVevWdPr0aSpSpIhOprbr162jIUyyL738Mj03bJjVNZRTvkwZdW7O/PlUvnx5q+uxsbH00gsvqMEJF9ZyWfl4wbIs44Jrm7ZsUUR/jvtZoEABq7wff/ghTf79d8u5pHBDwiM8UITfu0d+fv7kY/JReRvVr0+XL1+2lCM7goAg4BgCnin8Gvrejz07EHdUVBQNf/VVqlurFk0YP14RtyGZ2v3mu+8UcYOsunXpQu2YMA8dOqQI7NfJk1WaxYsXq+2QIUMs2X18fKhCxYqK3OfNnUsFCxakCewlg7h/ZAJHna+/9hrdY+KCl92VvXEYyB3EfZE15r59+lBTbudCJll41bO4HGyNVpi94A/ff1+V9/2ECRQXF0eNWNvOnTs3ffftt1SxXDnWu2NUX7FfuUIFlb19hw6KuMPYE3+c627AHvTsmTPV4DEy3ss21mO7nzNHDurXty9BVtGzipcZS22O4KbTBmTMyGR9iZ55+ml6rGlTIW4NjGwFAScR8Hjy7hZPlG8MH04LFyxQksc3X31FS+JJ2IgXvGWQX4e2benA/v3K8+3OJB4ZGUnVqlVTScczwcNaGCJUOnXurIhwy+bNymPtyvIJvGrIJGM//1zVuYBJ+dmhQ+nI4cMqHA9lQIaAh9uF5Yzt27fThQsXaDiT/NEjR1TUB64bbemSJfTnH39YZJuLnB4GKQXloJ3asK+lnjWrV1ObVi0Js4V9HAZ4lRcm3xo5UpF87tx5dJYEtyPeeIO2shceEhJCzz/7rKorMDDQkt4R3HRiDDgt4geBs2fP6tOyFQQEAScRsHbtnMycFpIXLFRIeai2ZA0PuW27dpYuZGMpBBo37Ld4L1tf9PPzU7uICwfBnj51iooULUr6uFfv3ur6d998o7a12NOGzZ83T231HxBgR5ZDYNmzZ1f1QTKAjmy09RzCWKp0aWrMZLuB97Uhv9F2796tZA7IOIkZPP7Q0GvUmQciDAjQvDNlykS+vr6JZbNc0942TsTExNBVlpHg7WNmgHIcxQ35sV6gBxUciwkCgkDyEPB48vZnfdUeWZy1eRsUi2faQJy2Bk82mAkL5P3Xn3/S26NH0xD2pCFjVKhQkSBJ6JdbcrDMADuXiGdZOF67Rj5bu3zpkjqFwcFoIGGjGT1t43nbfXjmGJD0IIR8juZFWbZpEYqozRnckAeet5ggIAg8PAIeT943bly3eJrGqIaaNc3esYZw7549ilhuMpnWqVlTn7a7BXm/OfItatmypZIhsPhm9Oyhk4PUatWuTf/++6/dMvbv26fqy5M37wPXoZ/DdvLiqCtsxJtvKuJeyVE2iCRBH2F7WBrKkCHDQ1XhDG4PVZFkFgQEASsEvK2OPOAgT5481PuJJyyLfToU7jPWnrVBj37hxRf1odpCDkB4HuSMxzgsz2jfT/qBEE2ChUkY0u7YuUMNCkOfeUadGxevheNAv5347PPPW9qB8+9zhAYiLr5ieQVlhHF9WbJkoS5du+KyMsg3rdu0UfurWat21hDjDTlESxnIrz34XznqRhN3E14sxNuUD2vO4PawdUl+QUAQ+A8Bj/O853GMNAgYC4yI8Hhn1ChaunyFIuRl7HkiNBAyAkjS1t57911FrN9xNMo+9oyxIAjvOWfOnCofiErbRI72qM3XEC2CEL7Q0FB9SYUKDuZoCoQcbtm2jbawVl2UNXLIMZANvogfSN5l6QWRGmM4Frs3R5uAzGuy1w/ihdYNbd1Zw2JneY4yWc2vuq/heHP0f+fOnWpAQMgk9GvEn6NfrjJncHNVnVKOIJDeEfA4zxuaNOzYsaNqiwiJF4Y9rzxOEC28akRKQKu2NUgfn3z8Md25fZuqVKlCbTjqBMS9i8mvG0eUGA0vmtzlH7WCQUaxNUSQQBoJDMykYrRB3EiPGG+EIsKWLV2q2nH71i2qzPUh7M+HFwFB3IMHDrQUqXVi4+CBi4gwgenr2P+KXx5CPbmCg9WLRjiHSBtIORk5TK8dL5jWrlNHRcJAbzfmRVqjJXQt1ka3dgY3rtBYhewLAoJAMhHwyJd0IAeEh4c/AAkWErPwG5aOeLTwzHOzBHP82DElcTxQmBMn8DIQvHij5m6bHe3KyhKKq8LnUF40x7YbFznh0ZcoWZJO8uzDHj62bUrOsStxS079kkcQSC8IOEXe+C1v/CaJKwy/Kjhr+l+uKErKEAQEAUEg3SHgFHkDHfwsLEj8YQzELT9K9TAISl5BQBBI7wg4Td7pHTDpvyAgCAgCqQEBj1uwTA2gShsEAUFAEHA3AkLe7kZYyhcEBAFBwA0ICHm7AVQpUhAQBAQBdyMg5O1uhKV8QUAQEATcgICQtxtAlSIFAUFAEHA3AkLe7kZYyhcEBAFBwA0ICHm7AVQpUhAQBAQBdyMg5O1uhKV8QUAQEATcgICQtxtAlSIFAUFAEHA3AkLe7kZYyhcEBAFBwA0ICHm7AVQpUhAQBAQBdyMg5O1uhKV8QUAQEATcgIApKFewG4qVIgUBQUAQEATciYD8qqA70ZWyBQFBQBBwEwIim7gJWClWEBAEBAF3IiDk7U50pWxBQBAQBNyEgJC3m4CVYgUBQUAQcCcCQt7uRFfKFgQEAUHATQgIebsJWClWEBAEBAF3IiDk7U50pWxBQBAQBNyEgJC3m4CVYgUBQUAQcCcCQt7uRFfKFgQEAUHATQgIebsJWClWEBAEBAF3IiDk7U50pWxBQBAQBNyEgJC3m4CVYgUBQUAQcCcCQt7uRFfKFgQEAUHATQgIebsJWClWEBAEBAF3ImBytvA69RpSgYKFHsi2dfMGOnf2zAPn5YQgIAgIAoKA6xFw6idhu/d8wi5x62Zt3byRQOJp1bJlz0FRkZF09+6dRLvg5+dHJpMv3bt3N9F0jl708fEhf/8MFBERTrGxsQ5lM/n6kp+vn8va4FClhkTe3t6UJ08eun37tvoYLtndRfqy5coxtnfp9KlTlCVrVsoUGEgXLlywm15OCgKCQOIIOOV52/O4jcXXqdeAve8Q46kE91Oblw4y6T9oqCLPcV9/niiJdunek/LmK0ATx32tCDfBTjp4oXrN2lSvQWNauXwJHdy/16FcHTt3p0KFi9CP33+X5GDjUIFOJqpQsSLNnD2bdu/aRb169Eg098BBg+iNN98kLy8vuhUWRjWrV6dpM2ZQ8eLFqX6dOhQaGppofrkoCAgCDyLgFHk/mP3BM/DOHbHU5qXfj4ig6KgoCjd4v1myZqM+T/an48eO0KoVSx3pVoqlyZs3H0U6MEtIsQYlUtHw199QxL1yxQpatjR14ZhIs+WSIJCqEXA5eTvaW3jpqUliuX//Po37ZqxV8319TZQhIICyZstudf5RH2TKnJl8Wbo5E3L6UTclyfrz5ctHPiYfJY8Me+65JNNLAkFAEHAMgUdG3o41z3Wp8rCnWrpMOcqYMZCOHz9CJ48fo9p1G9CVK5fo+NEjqqJadeqxhnyPDuzbQ8WKl6QSpUqr8zlyBlH9hk3o8qWLygvXrYKOW658RSpctBjdvXOHjh05TBcvnteXqUjR4pS/QEHasX0r3b8fYTkPuaNgoSK0e+d2VZ/lAu8E585DFStXJV+TiY5yeadPnXhAwileopTKcvrkCWrZqhU1adKEfvjhB6Ul40KmTJnorbffpoMHD9Jff/6p0uLPU/36MQal6d3R71B0dDSh/fUbNKAOHTtSzqAgWrNqFS1cuFBJGzpT02bNqEWLFqp81IPjLZs302b+2LMhQ4dS0SJFaNGiRVSwYEFqzHlg0Lc/GTOGDh85QpN/+02ds/enbNmy1LlLF6WP/7N9O82dM4fOnTunkj5MX4FJ/4EDqUaNGhQeHq76MPn33+01Qc4JAmkCgXRB3m07dKZSpctabkjpsuXo7JkQJtDCdPHCOQt5163fSOnHIO/KVatT4SJFVZ5AJp6atevS+XNnrci7U9fHKXeevJZyq9WoRSuWLqJ/D+5X5ypWrkIg2iOHDlqRNwi/TLkKdPLEcSvyrlCxMmvp+S3lIQ004t9+nmhF4BgUYCdOHKO69Z6kbo8/TpEs+bz3zjvqPI7x6dCpkxV5D3/jDcLi6Nsj31LEvWTZMiparJjKgz8NmMjfGjWKOrVvzwPccXW+S9eu1Kp1a2rYuBEFB+dW5zAbsUfe/xs7ljp17kxXr1yhTz7+mEZxe6Brw7CmgDZdOH8+QfJ+74MPqHefPio9/tRmPXzYiy/Su1zOtClTqGSpUsnqa5GiRWnu/Pk8cGekuLg4JeE0a96c+g0YQM3jBxdLpbIjCKQRBLzTSDuT3UyQMIgb+vCcmVPp++++pNUrlyniTqzQebOn05Q/flVJQNrffvkZzZr+l1WWnOyR49wPE75l73qLutakeUurNM4cgLgP/3uAfpo0jqZM/oWuXwtVpNe6XUerYvLlL6D0+bCbN2jG9OnqWh0mOm1t2rZVu4iKKV+hgtqHF+zv709Hjx5Vx99PmqSI++LFi9SXCbNpo0a0kAnOxB7/rLlz1VaXh22uXMH0048/Ujsm8mefftp4Se2P+ewzRdwg5xZMjHd4JtKB29GVyRx26NAhqsjRJo+x527PenEbQNxRPAgNf/VVqs0e8hgeAEC2773/PlWpWjXZfX2dBy0Q95LFi6lMyZLUqH59NYgUKFCAUK+YIJAWEfB48i7L3its9owpSiOGtr1/7+4k9XaQRkxMtMqL8D18cM5oGAQQNYOQwY3r/1ZhhiBMfJJj169fo2VLFtIdDr+7cuUyTZ/yh6q3WLESluIg+4CEL1++pM7Byw27eZMK8SxCW/ny5ZX3i+MePXuq051YioCtYG8bVrdePVV2F5ZMtrM8gZC94a+9xlLNEQpgzxrXjbZwwQL6nAkaHvn169eNl+jjMZ9Q127dKCQkhFqxxAJZAhYTE0NYCIYBPwygOGfPdDtfe+UVQl03uU+//for/frLL8pT7tW7t+pTcvpauLAZmx3//KOqvnz5MrVu2ZLatGpJi7guMUEgLSLg8eQN7xjEAb3aaEePHDIeJmv/3LkzVvlAuDDICsmxUyfNUoXOC538JnvXiOlGHDisaHEzkUML17Zz5061KFipcmXlaWPwmMmheIipbsQeNUxvp0+bRtmzZ1cDwNWrV+nGjRu6GLVdv3692mqtWl/cuMF+/H7VatWo++PmUME2TIgg6ORYEdbJMTgujx9cdBlzOBwRhr7BnO0r8kA3h73z3nu0kbX6L7/+WuF08sRJNUNQF+WPIJDGEPB48k7ofiDm+GEtKjLKqoiEvEqrRIkcwOO2tXBeQIVlzpJFbYvGe+EnWe/WpskJC4/ag53CGvEujsHOy9EeIPNSpUsrbxZec2EmShi8WFu7fMns0SNKxGgYAJOyQUMGJ5UkwesZeHDCIqqtnY9frMzKmjnM2b4iz88//aR0c0g6QblyUTvW9Key3LR23TrKzJE7YoJAWkTA48n7GuvGiKqATmy0MmXNcorxnKv3tcqSKbOZeHX5GQIy6l2rLSJNbA1vfcKuhV5V2/zcDwwS1wwvtqxauVLNLuqxlgsPG6QMOWXOrFlKcsBLMpBCtGywf98+5eXmyfvfYqsqnP/g5RvYzh071DapP/CWB/HCH7avvjZcLTImlcfe9WvXQ8mXZxiICjFazVq11CHeyoQ521eVif9gwbNp48ZUgaNZ3uFFWSwE58ufXy3Q6jSyFQTSEgIeR95YmCpZuowibNwI/cZi1+691HlEPdSoVUdFjyR1o2Kizfos8iTHsOAIK1GylCU7FgQLcPigPcPCamDgf+SFcEVEukD+ADlCOgng/l2Nl2d0GfCKz7DeXJSjY+BpQ8OGQYLAtWfi46u1BAHyD2PyysLePKJJtGXLlo1at2mjDlevXq1PJ7rds3s3QVIZ9913aqD4iTXqIA47dNaOHDaHa37y6adWWUeMHKmO/4nXq53tKzJPmDiRfps8WQ0M8O4hHY0bN06Vm9fOAKYuyB9BIJUjYErl7XO6eb2e7M+klJV27dhO6/9eTfs57C8fkyUWLtt1MC/aodBTHCNdtJg5jC2hSqA3Q8PNym9aduvRhw4e2KeiQRJKb3sedSB2vEKlKiqO+hJHdqAd0LDtGWYIeEUfIYD+fv5UJL59a1YuVcn/07tPPpAdZDtosFm2gN4NA0mHnD6tokpAemvXrLHke3f0aPqGCRdRIojyAJnXrFlTaeEbWPfWnq4lQxI74779VuWvU7cuzeGolSYNG6qBI4lslsvwhpdznDnCEpfzTOLYsWNUuUplFZ547do1+n78eEtaZ/saHBxMFStVolVr16o3PPHyVafO5mdhKnvkYoJAWkTA4zzvmzfMkRCQS7Qt5wiOyb/+QNu2bKQ9u3bQ3FnTaBX/jog9g4drtM0b1yktFjHhlfjlGaPZprUcxxeBGPJNG/5WJIbfQqlavab6LRSLXq3rik+P9t3lyJUyZcurhUkMHBiAThw369s66sSS39CY6VOnqiPMFtb9/bflCl5Jh4GMQeDa8Jr6hxyCd/vWLSbJKtSIJQUfnhWAuAfzyyzadJ9s9Xxdlr6O9AP796dQXgTNnTs3jZswQRURGxdfp+6rLjh+q8tBtAt+IwWRINDkW/DiZ1BQLh5kT1J7ng0gSkibs30dyLIOpCLMLDBQYYEV7UYsuu0Cqa5DtoJAakfAqV8VfHm4eQrrqk59PXaMq4qyKgfShF78Kl6iJHueJegwvyhj/DGsxk0fU2QKMv97zUqr/PYOEJ6HGGRNNvbSJHYOr9gjeiQiPowusbSIVjH5mDgSwnoBc8izLyrtGjHnrjTIQllZQjl79qwri012Wbh/xUuUoCOHDye7DHsZMbPBiz5YL5Afw7KHkJxLSwg4JZvgx6TwmySuMCORuqI8YxmauHEOHhtki3IVKtGhgwc4NO6aInO9gKnfhjTmt7dv9PzsXU/qHF6ocdTsETwiRqB/2+rdjpaZWDos3uGTWgz3z9XEjb5h4HVHuakFN2lH+kLASfLGf7gQwgTe8KFQAnGn1I9Soa51a1ZRwybNqHzFSpZ243e7Fy2YQ1fiX3axXEilO4UKF1UtO33qQb07lTZZmiUICAJuRMAp2cSN7UiRohF2h3hhvEyj46dTpGIXVILfJMmQIUBp5rb6swuKlyIEAUEgjSGQrsg7jd0baa4gIAgIAgki4HHRJgn2VC4IAoKAIOBBCAh5e9DNlK4IAoJA+kFAyDv93GvpqSAgCHgQAkLeHnQzpSuCgCCQfhAQ8k4/91p6KggIAh6EgJC3B91M6YogIAikHwSEvNPPvZaeCgKCgAchIOTtQTdTuiIICALpBwEh7/Rzr6WngoAg4EEICHl70M2UrggCgkD6QUDIO/3ca+mpICAIeBACpqBcwR7UHemKICAICALpAwH5Yar0cZ+ll4KAIOBhCIhs4mE3VLojCAgC6QMBIe/0cZ+ll4KAIOBhCAh5e9gNle4IAoJA+kBAyDt93GfppSAgCHgYAkLeHnZDpTuCgCCQPhAQ8k4f91l6KQgIAh6GgJC3h91Q6Y4gIAikDwSEvNPHfZZeCgKCgIchIOTtYTdUuiMICALpAwEh7/Rxn6WXgoAg4GEICHl72A2V7ggCgkD6QEDIO33cZ+mlICAIeBgCQt4edkOlO4KAIJA+EDA528069RpSgYKFHsi2dfMGOnf2zAPn5YQgIAgIAoKA6xFw6idhu/d8wi5x62Zt3byRQOJiyUcgX758dOfuXboVFpb8QiSnICAIeDwCTnne9jxuI0J16jVg7zvEeCrBffHSH4QmKCiI1q5fTydOnKC2rVo9mEDOCAKCgCAQj4BT5O0IavDOHTHx0h9EyctbliAeREXOCAKCgD0EHhlbwEsXEwQEAUFAEEgeAi73vJPXDPfk+uCjj+j69ev09ZdfWlVQrXp16t69O61cuZLWrlmjrvXs1YsaNW5MgYGBtG/fPvph4kS6c+eOVT7IGl26daOGDRvS+fPnaRXnX71qlVUab/ae6zdoQB06dqScnH4NX1+4cKFdDbtO3bqEerNmzUorVqx4oCxdsL+/P7Xn8tq0bUtXLl2i2bNn084dO/Rl2QoCgkA6RMCpBcuXh490KURfjx3j0vJsC9vOBJc1WzZq1qQJnT93znJ5JpNfpcqVaeSIETRv7lxasmwZFS1WzHIdO+Hh4dS1cyc6eeKkOt+0WTP6ftIk8vLyskq3aeNGGti/vzoH4rZXVnR0NHVq356OHz9uyfvTL79Qw0aNLMfYOXb0KJUsVcpK88aAsWrtWgoICLBKu2b1anp26FCrc3IgCAgC6QeBRyabpATEixcvVtUMGTLEUp2Pjw9VqFiRQKgg7nZMqiBukHv1KlWoaqVKtJzJHGT59uh3VL6CBQvSBPbEQdw/MoHXrVWLXn/tNbp3757ysruyNw4DuaOsixcvUt8+fagpk/PC+fPJZDLRLK4LW1i/AQMUcUdFRdHwV19V5U0YP14Rt0pg+DNvwQLVlpXsmaO8fn37qhlBs+bNadDgwYaUsisICALpCQGPJu/x332n7mULQ+RGp86dCR7yls2bKTY2lipUqKDShISEKFIEIb84bBi1atGCRgwfrq51ZYkFeSCTjP38cyXFLGBShud75PBhyp8/v0pXt149VWYXlji2b99OFy5coOFM8kePHFEEjOuwbvFk/waXv5DJGdLON199RUviBxuViP8UKFCAcgUH0zkeWIY995wqb+uWLdSHpRZYl65d1Vb+CAKCQPpDwKM179DQUDp96hQVKVqUED8NMu3Vu7e6y999843azpo1S3nC9erXp11799KuXbtowbx5BHLWVos9bdh8Pm80EGlH9txh2bNnJ2jTly9fphs3bhiT0XoO/ytVujQ1ZvlmA+8XLFSI4uLiHiBrzATatmtnyducBxAYSHwGt9PW0C8xQUAQSJ8IeLTnjVv6159/qjs7hL1keM8VKlSksJs3aS8TNQw685MscRw8cEB5x1iM/PyLL2jfwYNKF0eaHDlyYMMx7GfV1t6fwkWKqNMo29Yu8yIjDAMIzN/PX8k26sDw56zNG6pF48tEEpC/8YNz9/hlHjFBQBBInwikC/KOiY6hli1bEiQTH5PPAx7vjn/+4cXJzlSWFwsH9OunFhbhRX8d750fOnRIPR21atdO8CnZzxEq8Kbz5M37QBpo7DAdIXLjxnXy9fWlTJkyWaWtWdPs4euTkF5giIipwmUYP6VLlKBaNWropLIVBASBdIaAx5F3njx5qPcTT1gWB2NiYmjHzh0UlCsXDX3mGXV7x8Vr4Th46ZVXaMq0aYTwQdjmTZuod8+eaj9zlixqu3GD+ZX/Z59/3lIuLrz/4Yd0hCNIvmKSRz1h/Ep7Fs5j1KKzcbRL6zZtVDmrOUIEpqNOPmP9XBtmBS+8+KI+VNu/OcoEhtBD9EsbdHDIKGN5hiAmCAgC6RMBj9O853FMNfTnatWqqYgQ3NaJEyZQbfaaEQly+vRpghauLZZJtzp7sJNZXkFExxXWrDt06qQua9Kew6GFg59+mooXL05btm2jLax1F2W9GTIGvO0v4kn43dGj6RseGMZ89hn1ZikGZF6zZk2lhUPrhv4Oe2fUKFq6fAU9xpr2Mq4Tr8OjDSB6o2HxFHUjmmUFEz9mCAhhRDy6n5+fRfox5pF9QUAQSB8IeJznjUVJ2LFjRy13EN703Xh9WGvg+uJ3335Ls2bOIIQQYrGw/8CBivyXLV1Kr7FXrg0RJJBGAgMzUavWrRVxo0zEeCMaBIY8H77/Pt2+dYsqc9ghSNaHwwNB3IO5XG2IbHlh2PN0k/VxDCggcbwchLy2hlh0HYUCDxxpfbx9aOpff9HH7PmLCQKCQPpEwCNf0kGMNjxUZw3x3JAvQK6JGV6kuciDhO0bmMY8WfityawsoZxNZJET6bEYirTaKzeWYbufn6NOoJU7ktY2rxwLAoKAZyHgFHnjt7xd9Zsk+FXBWdP/8iw0pTeCgCAgCKQQAk6RN9qEn4UFiT+Mgbjld78fBkHJKwgIAukdAafJO70DJv0XBAQBQSA1IOBxC5apAVRpgyAgCAgC7kZAyNvdCEv5goAgIAi4AQEhbzeAKkUKAoKAIOBuBIS83Y2wlC8ICAKCgBsQEPJ2A6hSpCAgCAgC7kZAyNvdCEv5goAgIAi4AQEhbzeAKkUKAoKAIOBuBIS83Y2wlC8ICAKCgBsQEPJ2A6hSpCAgCAgC7kZAyNvdCEv5goAgIAi4AQEhbzeAKkUKAoKAIOBuBIS83Y2wlC8ICAKCgBsQMAXlCnZDsVKkICAICAKCgDsRMOn/YcadlUjZgoAgIAgIAq5FQGQT1+IppQkCgoAgkCIICHmnCMxSiSAgCAgCrkVAyNu1eEppgoAgIAikCAJC3ikCs1QiCAgCgoBrERDydi2eUpogIAgIAimCgJB3isAslQgCgoAg4FoEhLxdi6eUJggIAoJAiiAg5J0iMEslgoAgIAi4FgEhb9fiKaUJAoKAIJAiCAh5pwjMUokgIAgIAq5FQMjbtXhKaYKAICAIpAgCQt4pArNUIggIAoKAaxEQ8nYtnlKaICAICAIpgoDJ2Vpq1KxNefPlfyDbzh3b6cL5cw+clxOCgCAgCAgCrkfAKfLu0Kkr5ctfwG4rcH7nP9toB3882Xx9fcnEn/B79zy5m5Q1azaKioqie/fuptp+ent7k3+GDBR5/z7FxMQk2M6AjBkpOiqa+xOZYJrUeiED9y82Lk71MbW20c/fn7y9vCgiIsLhJmbKlIkyZc5MVy5fptjYWIfzScL/EHCKvBMibl1cdfbKL1w4rw8T3aZVL71Zi1ZUpEgxmjHtL7px/VqifUyrFzNnzkK9nnhKfal+/mFCqv1yla9YierVb0Qb1/9NBw/sswu3v38Geqr/YLp86SLNmzPTbprUfPLJfoMoOjqafvt5Uqpt5pNPDaS4uFj69SfH2zh+wniqXKUKPdnnCTpw4ECq7VtqbphT5O1IR+CdO2Jp1Uv3Ii9Hupcq0vTs3VcR78zpfznVnvv3IxRhRESEp1riRocKFy6q+hVy+lSC/WOHUMyNCGRm7xmz0XNnzzhXi9wY5/Cyk9rl5G2nDrun4KV7usRit+MpeDJL1ixMvnFO1xgZGUnwuFO7BefOraSdO3dup/amemz7CvMsFHbmzGm1lT8ph8AjI293djFHzpxUvEQpyp49B928eYPgmWHaDCtTtjxlyZqVdvECK6aj2uA9VK1ek8I4/ZHDh9RpPz8/Kla8JBUsVJhu3QqjfXt26eROb1FnsWIlKFdwbgq9eoVOnjzOdd18oJzcefJyuuIEnTbk9Gk6E3LaSqstVbosZcmShfbs3kklS5Wh/AUKUkR4OB058i9dvXJFlZc9R06+Vpq8vLzJ2zuOatWpR/dZj9wb335oxaXLlCPU5e3tRZcYm2NHjljVU42xCOdyD/1rntI6Uq+xM7lz56ESJUuTj8mHTp44rhazjdomFr5v375Fly5epNJly1EObvOqFUvVPYE3V4L7lov/f1WkOXXyBKe7YCyeAgMzscfnR+dtFslzBQdTqVJlKUNABs53kus9a5VPH3h7+1ChwoWpKN+Tu3fv0Injx+ha6FV9WZUPWebsmRA1+0D/TdyXw4f+pYssDUKOqVy1GmXLlp2u8v08fOjgA+sgGQIClMRWoGAhunHjOrfnOF2/ljypDfesQsXK6p6hnceOHmZsrActR+4rOhjM9wbPWBZe17h2LZSOHjlEt2/dsvQdO0nhoxMXKlxE7Z5mrBOyrNmyUbduXalevXosq16g8ePGJ5SUSpQoQd26d+fvXTFa//c6WrhwIX/3zG1r2qwZNW7cmGbPmkX79++3KuPFl14iPDcff/SR5Tzqa9e+PeUMykm7d+2iWTNncX+t8Q/m56V9h/ZUt249OnXqFC1atIj27d1rKQM7b48axTOLs7R69Wrq3acPlS1Xlp+LMzRh/AS6zJr9ozKv4PzFHHbNhj73okvbOWnCty4tD4VVqVqdatet/0Cl0awQAABAAElEQVS5/2zbQrt2/kNNm7ekUqXL8IOxxkJMSFy+QiVq0KiJ+nKuW7uKMjNB9urTVz3EujCQz62wMMqWPbtTmjeIsGbturoYtY3jRagN69ZataFLtx7qi2VMiIW46VP/sHy5oEVjMRFf4JxBuYxJafXK5XT82BH1Ja/fsLHVNZTz06TxhAWwHr2fpICAjFbXQdSzpk+xLFA+/ewLav/P339R6RypVxfYuevjimT0MbZhYTdpxtQ/LTIMnqX7vNDo62uyYPz7rz9SMA9urdq053PerKPG8QBk1j327d1NWzZtsBRZrkJFatioKW3dvNEyKDVt3oLvbVlLGuxcZNLPmzefleYN4u3Ttx/5+flbpT3870Fa9/dqdQ6E265DZ7p544a638aE2/lZqlGzlqXduBYZeZ+m/vm7ZdEO60PtO3axtF/nB8mvW2uuQ59LbDt46PMKMyweZ+QB3Wgrly/lgfGYOuXofa3FzyGcFJjGF9sVyxbT6VNmAnYEH1UA/xkweKjCIaGZGkh4JpOtj4+PzqL6Exoayvc62ErzfnPkm9Srd29LOuzguX2cyfzkiZOK1Ee/M5r2Mrn26/uUJV3BQoVo4aKF7KjdpCaNzM/93HlzeWA2zwp0QmD43LPP0j/b/1GnMBh8+dWXD9yjdevW0Usv/Md1e/bt5e/CPR68TfzM+OniVD+6demqSN9yMgV3PCrOG54YvEyQ7OKF89TUf+WyJeohrVGrjoJ1756dagsP3Gjw/mDauwaRwvuAh/Pn5F9o9sxpioBA3M5YUfZwQNx4CJctWUi/8sITBg5Yw8ZNLQ9Dk2YtFHHDQ0Ndk3/7iT2A3eqh796jtyIzY72ZeFFxzqxpqm3wBmH1GjRS2wP799KPE8cxDjHKk8X+Lz9+r67VrF1PETdmI3/89jNN+2uy8iQD2EusXKWqSpPYn8TqRb4GDZtYvEOQ9ZQ/flPeMQac5i1aWxXtz1EKN2/cpAXzZhMGCcwgMOiAuJcsmk8/fP+dGiQxQ6pUuSohqkGb1rs14WAWAuJGWuQFzps2rlPErfPobZfuPRRx/3vwgMIZOIaH36My5crzjMSa/HG/t23ZpPDT9w0ECK93yp+/0WQecHDPMBBgpgEL5EgKED8Gnk0b1vFC3kRaOH+OInY8dxUqVdZNcWiLWSFIw9IvLhP2WMvW7G1mUfuO3FeQT5VqNZTUhLYD31Urlql2wnHR5ig+GTMGqn5fvZKw9zn5jz/UM7xl8xbq0L4DDRo4iK7wDBHEbTR4vyBuDOivvPwKNW/aTHnYIP0//vxTJZ07Z466vxUqVLD6PgwYOEBdX7xosdp+/e03irhDr16lIYMHq3pXLF+utPnPx45VaUD4X3z5her7D5MmKdJHvSBpePfPD3tepdN/MHCeP3eOunbposo8f/68asOo0aN0khTfehR5IxRsqvpC/aQWUPBFhjyBKTe+SPBUMW29e/cuyxfBaiQF4vhyBPE1aKf4IkLigGcKb3HNqhV0984dJXXMmz1DDQzO3KVy5Suq5MuXLlLyDcLaIEXA68b0GxIHrFjx4qps1AFZBaGI8DSRBsQAucVoK9lTgkyCtq1nbxEDFghYm1GiwL4+3r51MxPqr2ogQRgg+qg9wTx5H4zf1+XpbVL1lipThuuKUZEdwBKyxxIeSOH1FC5SVBejtvD4Zs+cqvoI6QIGOQTnr7FnBkNEzx88kKHNUazFa4PkgwER7YeViR98gTOkDuB8gD0mfIwGwtEzlw3r1iicgeP8ObNUstI2g3ooz3AgUaH9uG94dmDLly5WsyHMWLZv3aLOQYOHYcDGAIRBFB+sISC6av7cmep62bIV1NaZP0sXL/ivX1zmwf371DNdrHgJVYwj9xWDCr4HWJDGcwM7cfyoGoDmzJyujp3BR9/PMyzt2TNIIAgJBIk++8wzSmrYuWMH9erR0/I86ny94z3uF9njXbtmjZI3PvzgQzp69Cg/E4FURj1XsbSD84PQW7X+zxFoxh407McfflDbunXrqvJ79eqlvGxIHG+8/gatWrVKDRwg4o4dO6h7BFKH/AGvHfUO5sEF1p4HGqPhmXy8++NqBgDPfcwnY9Tlwiy9PSrzOM0bHhEeqoIFC1NGvumYTuqXikx802GH+UuIBVN4SpjGlmQZBQ/1oYNmfTdvPInZPpT4EmIaDU1dG2QY/QXS57DduH6t0s4xYODGg1CMBiLQejK8KswaUDbqMBo8ZLQ/P0/DtW6P65ADtKF8LeeANDRR6+vGLb64GKyg1wYFBbN268/6sJn0oU8nZYnVC88O/YC1aNXWqijUCYOWr2PkMVjathWedPESJenJfgM5BviS0vwP8T0y6rtoL9pt1MFz5AxSONtGPZw4cdTK08UaAQz3pU27jmrf+Ac6u9FC49cR9Dk1gPBzZQwTvXvXrD1jpgbTzw+0eqPh/sKhgAYMA1H2frKfMYnax6AKCUYb7q9taC30c2jyGMRgjtxXrLFghpEpU2YaOORZ9iTPKqkEmjcGQpgz+BQqUkTlOX3aLLeoA8Of+g0aqKMdO8yzXX0JRHn50mV+rs1tx/nSTM6wYS8MUx91wH9KlSqldhs2akSHDx+mHyZOojp16lCvXj1p6ZIlVKBAAV53yMbrCScVAWfnmRKeDXj3oVfNDoAua/irr+ldqlatmtpfunSZ5Rx2/v33XzVQ5wq2liShu+Peadu4YYN63oyzQX0tpbYeRd4gjq6P91SLSAAQDyQ8JluDNwTyLluuvCJvLaEciI8VxssDsHvxXpYxPx5+/upbToXzF83eiyz375tJ2N/f7wGCsmSO39H1mcu2vqo9PZ1GX7UlPdtjnc52i4XKxk2bq8EKpBAdHWX1UNqmtz22rcd4rKfwyJMn739fTF0G7gVmB5q8Ub+tYdESxFiWZywgJnwgO0EawloETEsmxgHRz8/XQkDGMrWHqc9hVqXNXhtBgkaLowfbaLxubx/eJsy2bpzD4Ky161iOjbb37NjmM5IGyoDdifecMVOBOXpfIWXVrtuAB8gSvGBbRH0g3/29ZiUvXB5Ws05VIP9JCp88efIpzDEo2bP8+c0zORCprYXdCrMibwz8sJIlS9omVSQJJwy2a9cuNZCXj5dOtGQyZcoUdR1kDtOLnOrAzp+cQUHqrL33UvCyERY/jY6QvXtgp9gUPeVR5F2SR2ms/mMxb9mSRUoGAZpt23fkiJEiFmBxcxAhACkCDwUkE7zphak2DB4fzHZBEOdsNe+trIfik5DdCrul8sC7tvWqdZ4b16+rBzQrt93WcuUyewBGr9s2jTPH9Ro0VMSNxa7Tp06ogQUeYN/+5umiM2XZpr3OpAtCBrFA5kiu4acW8AFmZctXIGjMkEUwY7rM90ZP10+xl64NnjnkEJCA8YuWK5e13KRxNA4GugxXba+wBoyIDkhzWtbRZavBi6UWGDR+o4et09huMWuBVKC9Y1xH2TBIbDBH7yuefQyC+MADr1qtBmHxt3HTxxR5O4oPFjXx3dHpVSNs/iDCo0fPHjywmNcCjJfz2gzukFaC+Flv3LCR0r2NaW33V65cSV27dqVWrVoRFh2By+xZs1WygwcPqmfQtnzbMo5ydFURnjlU5RnokcNHrC5j8IXTZHRMrBKkkgOP0rxz5DCPpqdZatCxv3jA8uU3T5WNmB/Yt0eRWMs27dV2/77dlssIX4NBh9aeDY5BGsZjnEvKEIYHg3djtC7dehIiLvKzHALCg+YLj0wTE9Jq8sI+FkucNcR4g8z0dB75oZ9Dk8a0Wz+cjixUOlI3+gFPEl6L7du48PYxiEKeSsgghyDSBGQNw2C3d/cuNSXGMSKAYHk4egR9MEoX/5GYedFWJeQ/tTgEzGhaaoE0Y1wjwHMCGaVu/YbG5Mna1xKHXiTXhSDKA/2/zuF5zlrdetbt0mVrGcuR+4pnDfjqhVV8RzawvIcZH7xMzFwdxadwvGRy1vByDuSKnqwz54yXFTdtMjs1NWrUUPKG7nOHjh15oP1vBoTzx44dV5ffHDlSJ1NbyChTp09jkv1vMX3S9xPVtaefGcohpjmUDq6fZWzDOCIMOrkxcgXSyvYd/9DuvXuUrLJ16zZVxuDBg1TfdaVvjBih7tFZDg101nLzmkePHj0sa2nI3659O+aRYpaiihYtSug/8H5Y8yjP+xR7ktABq1arrggEI3KJkqWU12IL1PFjR5W3gTAyEAHifLVh4RORCOXY6+vJ4YIhrOnhy4F4bxBUYgSky9DbbVs2qkEAXxh41vBUoCsiBh0r2zpO+e81q1RoGb5ckAPglRUuWkx9oaBJ6sFIl+vIFl9EhLz16P0EneD+/rN9q/IE4aE+3rMPhYScJsRj6zUBR8pMKg36gUgLfNAPLFhiQIKkgr4Dv4QMfc7HU+0i3G8QdEjIKZ5J5VBrCsgHDRkDGkgXMyWjbeGQQSwUli1XgckjSMUvF+B1Dy1h6LTwyrEAiZBS6M1YU4Ccg/sDD1cPtjp9crZop5rZsX7ep+8AXjwPUTNC4IxnDYvVzhqea3jbiMtGvzBAwqvHgiMM+0ndV0gJwBYfkC8WagvxvcHiPKQP/dsvjuBTKP7t1tOG2c/YL8Zy+GYj6j+gP7Vp1VpJF2tWr6FmzZvRHA7d27Vzp4rEQbSI7ffoww8+oHkL5lOXrl2oSpXK/N7CUaV3g/jUYvGhQxbIEFuNaA8QIeyHST9YrmHn3dHvECJORrw5gjpwFEsoBynUrFlTPTvbt29Xnv28uXNpALcTUSdr/l6r4sALFCyoZBvwxuhRo63KdORg+swZfJ+zqdf+337rLerXvz+98uoraiZYgzkJNmPWTPWc5WO9fxLr9w9jD0//D1O7i/NiAQYv3+DlFISN4YuMxRG9cGSkDYzQ+OLCsNhhSyqIRMAXw8fHW32xoQ+eYbLDR1kiJGROYP6LaSpW8uElQp7BixYgbkg7M6f9aUmKtq9euUwROuoqVaasGp1B3GtXr7SkS2gHvy1ha3iDFdEQ+FJXZrKCLV4wVw0EiHIBgeXOk8cSbcIgWBVhi4nVxfgD23qxYIgIHdQL0kZ/Qdz4kiNczmj2yp/L0TZ4IQpEV4e1Wcgl8OYRPokvlSYNEKLRoBMvWjBP9Q2SBe49vGnEvtsaQv90FApIG2lxn4HX7p3mGGCdJ87mDVV7Gvh/sP2H3/w5M9WCYGBgRlU++gOCXTB3ttrq8h3Z4hlCbDlkPrQVAxKeH0QmaQwdua8YSBGNA5JGvzHLyMftwqA6d84MS1Mcwcc8EMWqduiMx4+bvedzZ/+bJb76yisEwoTsU4ejQCpWrKhesNEv2eBHt2B4eWdg/wFqobEIk3LrNq2Vx3qRZ8F9evexxM/rumZMM0fHQKJDBIvREKf90YcfqcED2jhC//AsIFzxmaeHqqT4/iN6BIugGAghv0BvDw0NpReeH8YhwuZBUZercdbH2OKc8TzaCjtxwoxDSEiIuo6ZgLYb8esDp0+f1qeSvfW4l3Q0EiCs8Ihwi46tzydni7Iga8BrexjDVAlEBnIy3nTbMjF9hYepw+dsrzt7jPJAssb2Y5U8IENAkm1xti5jerOXnDFZdUDqwev9ePMPpK0NseKYTSE2W79Rqq/pLfrmx312ZLYCvR/3xZG0unxnt5B77t6BhvpfP5wtA+kx48uSJatasEuoLEfvq743tpq8bbvs4YPnaeCQZ9TsYg4PqkYDSWKwsWfQvs+x/AcsEjNIfYgyAcFhdvowhreRg3IFqRC/xMqBh3/+3Pkk9fbEysA12/5DSkLsutFs0xivObPvlGyCH5NClIYrTOuCrijLXhlJPZT28iR0zlVlmfW4B1+Jt60XnpGewtpeS86xvbKwOKsXaJNTpiN5oFkntEibVH6Qk70oBu3xJUTcKNeZvtmL9kiqbc5et3313Nn8Oj0G/KSeRUf77ui9sYcP5EOYbVgmziVE3LhmuzCIc/YMTgZC9lxhkIqSijxBPXiD0xVm239b4kYdtmmSW69T5I1pJUJrqteoldz6VD68eCI/SvVQEKbLzPDIsBAFyUDs0SGgFyuNeveja036rdkp2ST9wiQ9Ty0IYBqPBSx7s4nU0kZPbwdkEyzu2vPKPb3vqal/Tnneqanh0pb0iYAQxqO/766W9R59j9JmCzwq2iRt3gJptSAgCAgCziMg5O08ZpJDEBAEBIFHjoCQ9yO/BdIAQUAQEAScR0DI23nMJIcgIAgIAo8cASHvR34LpAGCgCAgCDiPgJC385hJDkFAEBAEHjkCQt6P/BZIAwQBQUAQcB4BIW/nMZMcgoAgIAg8cgSEvB/5LZAGCAKCgCDgPAJC3s5jJjkEAUFAEHjkCAh5P/JbIA0QBAQBQcB5BEz4lTYxQUAQEAQEgbSFgEn/7+Rpq9nSWkFAEBAE0jcCpnD+L6bEBAFBQBAQBNIWAqJ5p637Ja0VBAQBQUAhIOQtD4IgIAgIAmkQASHvNHjTpMmCgCAgCAh5yzMgCAgCgkAaREDIOw3eNGmyICAICAJC3vIMCAKCgCCQBhEQ8k6DN02aLAgIAoKAkLc8A4KAICAIpEEEhLzT4E2TJgsCgoAgIOQtz4AgIAgIAmkQASHvNHjTpMmCgCAgCAh5yzMgCAgCgkAaREDIOw3eNGmyICAICAImZyGoU68hFShY6IFsWzdvoHNnzzxwXk4IAoKAICAIuB4Br8zZc8c5Wmz3nk/YJW6df+vmjQQS92TLnDkz4XPp0iWKjY11uKsmk4nq1K1LGzd4Nj4OAyIJBQFB4KEQcMrztudxG2uvU68Be98hxlMJ7qdVL/3Hn3+mqtWq0ePdutG+vXsT7J/thanTp1OlypVp9qxZ9Nabb9pelmNBQBAQBJxCwCnydqRkeOeOWJr10r28HOneA2mOHz9OFStVouPHjj1wLbWdKFGiBM2cM4e2bN5Mzz3zTGprnrRHEBAEGIFHtmAJLz092cgRI6hMyZL0C3vuqd3w/5pmzJiR8ufPn9qbKu0TBNItAj7+AZnec7T3WKx0pcH7dodVqVqVhr34Ig0eMoSqV69OkVFRdCbELOcMGTqUunfvTlu2bKEoPq8NOvZ7779PRYoWpd27dqnT2bJlo6f696OXXnmVatWuTQcPHKDWbdtS3rx5aeaMGXT58mWdPcltg4YN6Zlnn6UQbsf169epYMGC9ObIkRQbF0fBuXLRy6++Sn379aPixYvT9u3blZ5erHgxev2NNyhL1qx0+NAhqzq6Pf449e3bl+DRh4WFqWuo45XXXqNOnTtTHJd76tQpK11+4KBB1KlLF9q+bZvC5sWXXqImTZvSjRs36Py5c6qMriwHPfHkk1S4SBHy8/enorzNGRREBw8eVNe9vb0J9Qx74QXq1acPZc6USfXp/v37lvbpeiArPT9sGL348st06eJFatWmjcIe/YuMjLSkDwgIoA8+/JCKsce/a+dOy3nZEQQEgYQRcGrB8uXhIxMuKRlXvh47Jhm5Es8y8q23qP/AgQ8k+vOPP+hDJueffv2VGjL5fPXFFzTx++8t6UD2L/Bn7Zo19MzTTxOkgwWLFpOPyceSBguUV69epdy5czutef9v7FhFqu+MGkXTp02jtu3a0VfffEMXmdQwGBgNZFqPB4usTNpb//mHwu/doyosuRhtz/79lCFDBqpVowbdYvJesny5In5jmlBua2Pua3R0tDq9iQesIB4ozjFRFyhQwJiUPmbynPz77zRn3jwqX6GC1bVjR49Sex60QNxLli2josWKWV1H+Z3at1cDCS7oekJDQymIiR/29ZdfUvWaNRX23337LY3jjzYMsq/zzGTjxo00qH9/fVq2goAgkAgCj0w2SaRNyb4ED7XfgAHK23yFvcrqVaoQyBJeKLxJkI8mjS5du1rV07FTJ3U87rvv1HY6LyyCuEEoLZs3p77sZcLTBnG70kDc85kw69epQ2+zJx4eHk7Zs2en/twPkPipkycpgCWMajyD0Fab08JbPXHihCLub7jN8NhByt3Ys27XujUdYk8dRP3r5Mk6m2WbM0cO6sdeO/qFwQoGzx+GhVj0FXb0yBGqWK4cderQQR1/P2mSIm4MOEjTtFEjWjh/PiGSZtbcuWqrEsb/wWxm9Ntv02Ps3f/+2280Ydw4daUzt9FoXXkmBNPXjddkXxAQBOwj4FHkfef2bWrbuhU1rFePlixeTHfu3FFeLjxHL15oRJTInt27FeFBFoCuCwPJFCpUiG7evEkH2KMtWaoUZWI54OqVK8oThNSBqX6Xjh2tZAj7kDp3FgPCG8OHE7zUWTNn0gr2oGGVeeCB/RFPvoMGD1bH+DMgfmbxO88iYE2bNaOY6BjqwN4x2g8ppTsTJKSJatxnWxvBUsxW9sLRr+dZysGMAjo3LCYmhrQEgvMoA+dgdRlXnAMOwOPChQs0nGUakDwGE1w32ossmczgKJuzZ8/SPZ49QBLBLAGSETCHIV8x9uRv3bpFO3fsMGaXfUFAEEgEAY8ibxDL6VOnqSF7hPBGp7A8sZBJvFTp0goCEAVsMZ8DmT/5VF91/BRP1XG8cMECddy4cWO1BUEZDZ4wtFtX2lEeWIymyVuT27SpUxUx169f35IM8eKQKkD20OX9WZvGLOE3JvoZPGPAB3338/NT3nC+fPksebGjvW3sg5ghBcHgQSdkmA2gHqQFDkZbv369OmzcpInxNK1ft87qGAfAHoYZEqzPE08o7JezHCMmCAgCjiPgUeQN2WTdxg306f/+R615cQzeawH28mxtfPz0vWvXbuoSFvhgetqu9WB7C5I34xcHVQYX/LkfEWFVivZ69UmQ6z//bFfSCRZia9WqpbzVrVu3Ki+4GMsl2jBIGT84D8852EbqMS4WIk1MvCaO/YQMMxVYGM9ObO0yv7AEsx0kMJjamsZey1RYeIVpOcs2vRwLAoKAfQQSdrXsp0/VZ6FrBwfnVtrvIPbsTnO0BWzm7NnqBRndeMghkAwQWZIrOFhJJkiLKBDYDp6+92aPsGzZsjqLZZvfxou1XHDjzoTx49XbmVjY8/Ex37Lx8dr83j17lKYPyacOLwi6y/bv26fqyWOzuIr6KlSsqKp1RPbQ2BcuXFhhD8kEWj3eWBUTBAQBxxHwKM+7TJkyqud4BV0TN8i5XPnyDyAy5c8/1XT9V15Ig2SitWUk1DJArVq1lT6rM2ORMyvLFClt29jLvnv3LtVv0IB15bpKH9YhdfDMoSND1nisRQurpn0/6Qc1cPn4+FidT+ogIj7sDwue2lAPQhKzZMlCxsVeyDaY5cBWr16tkye6nTZlirqusYc0JCYICALOIeBR5L10yRLV+8cf70E//fILjedQwNVr19rVchE6iGk9Fiex2Dc1nlBQAMhw5YoVSkdGCN4vTPDQkcd89pnyPp2D2DWpl3HfsMAK3R6LsUZ779131eF37KEjSuZrDsPbzLHczZo3o0BeeAXxOmNHDh9Wi5YI85u/cKFFn3539GhVDHAAHvipgL9Z74YWvoG3esBMqi6EJGrssdULr0nlk+uCgCDwHwIeRd7Lli5V0SXePt5q0RKeKKbjOzhWWhmHDGrDgp/2Xnfs+OcBghv23HMqIsPH20d5vNDP9/JLJ/jA7Om5umx7W50eYYtGsyXWuHid2DoVa8LxMgnyam1elwMy/+TjjwnRNlW4nW046iRnzpyqf93i9Xykta1b58eLQrb2808/qUXRMiwd9ejZU10GvoiVv82RIcCjES/s+vAiJ4h7sCG2PqF6dB3AHnIPDHKMrQav08lWEBAEEkbA417SQVcRz12aF++w4Kh17IQhSPoKtG+EuyH00Gh4kxByRVK2h4lq9apVSSVzyXXIGLnz5FG/oWI7MDhbAXDEi0KQbGwJFovDWVlCAS7JsaU8o8FiK16IMka/JKcsySMIpEcEnCJvvB7vqt8kwa8Kzpr+V5rG/AC/COPr65tkH0DePeNfREkysYcnwOv4eEkHswMsXjawiQ338O5L9wQBlyHgFHmjVvws7MP+xgmI2xN+9xuyDBbwkjK8NOPMz8cmVV5avr6PfyMFGjk8+Sd797bIUGm5T9J2QeBRIOA0eT+KRkqdnoNAA46YCefYdrzp+rCyjuegIj0RBJxHQMjbecwkhyAgCAgCjxwBj4o2eeRoSgMEAUFAEEghBIS8UwhoqUYQEAQEAVciIOTtSjSlLEFAEBAEUggBIe8UAlqqEQQEAUHAlQgIebsSTSlLEBAEBIEUQkDIO4WAlmoEAUFAEHAlAkLerkRTyhIEBAFBIIUQEPJOIaClGkFAEBAEXImAkLcr0ZSyBAFBQBBIIQSEvFMIaKlGEBAEBAFXIiDk7Uo0pSxBQBAQBFIIAVNQruAUqkqqEQQEAUFAEHAVAvLDVK5CUsoRBAQBQSAFERDZJAXBlqoEAUFAEHAVAkLerkJSyhEEBAFBIAUREPJOQbClKkFAEBAEXIWAkLerkJRyBAFBQBBIQQSEvFMQbKlKEBAEBAFXISDk7SokpRxBQBAQBFIQASHvFARbqhIEBAFBwFUICHm7CkkpRxAQBASBFERAyDsFwZaqBAFBQBBwFQJC3q5CUsoRBAQBQSAFERDyTkGwpSpBQBAQBFyFgJC3q5CUcgQBQUAQSEEEhLxTEGypShAQBAQBVyFgcragOvUaUoGChR7ItnXzBjp39swD5+WEICAICAKCgOsRcOonYbv3fMIucetmbd28kUDinm7+/v6UM2dOCg0NpcjISI/tblBQEOXPn5/27t3rsX2UjgkCaRUBpzxvex63seN16jVg7zvEeCrB/bTspb8+YgT1feop+mLs5/TDxEkJ9jGtX1i1di0FBATQoAEDaOMGzx+U0/r9kvanLwScIm9HoIF37oilFy/dESxSa5orV65QgfwF6NLFi4+8iSVKlKCZc+bQls2b6blnnnnk7ZEGCAKPGgGXk7ejHYKXnh4kFkfxSI3pWjZvnmqaFRgYSBkzZlQyTqpplDREEHiECDwy8nZnn6FJt2vfnlq1bk3R0dHKW5s6ZQrFxMRYqjWZTDR4yBCqWq0amXx9adfOnfTH5Ml0KyzMkua9Dz6gs2fO0OZNm6hvv35UrHhxGswSgtFq1apF/fhcBpYXFi1YQAv5gzqNBumhLbenRYsWFBERQUuXLKHVq1ZZpRs4aBAVKlyY/vfpp9Svf3+qW68e3bhxg6b89Rdt27rVWFyS+8WKF6PefZ6gcuXK0YULF2jxokX0N0sg2hyt6yluR6lSpWjUW2+prE2bNVN9mDRxosKiZ69e6vy8uXNpxfLlFBsbq6sgjR1wf+3116lMmTK0e9cu1R+0ydZKcj0oDx72mjVrCGXqe9G1Wzdq07atypKPNfhPxoyhPXv20Izp09W5pPprW5ccCwKegIBTC5YvDx/p0j5/PXaMS8tDYbmCg2nl6tVKqzUWfpUlgI5MoNevX1dplq1YQZkyZTImobt371KHdu3o/Llz6vyR48cp/N498vPzJx+TjzrXqH59GjJ0qNK8T544oUjMWMi1a9cIaTSB586dm1YyGWFAMVro1avUtHFjy4Lnpi1bKChXLjrHdRcoUMCYlD7+8EOa/PvvVucSOujYqRN99vnn5O3tTXFxceTl5aWSLpg/n15/7TW172hda9etI5BlWSZWEPO348apAfHokSNUqnRpqyaEhISQ0VMHdnfu3CEfH5//t3ce8FGUWxs/kACXjlSlCwjSO4QQmnSQ3qs0FRUVvagX9QLqZ0exY0FBbHRBBJQiCEhHQQVBmhBAei9SAt95XjJ7N5vdZDe7mWR3n3N/2Z15523zH+8zZ897Zkh0LR647z5ZvGiRo/1/R4+Wvv36OfaxEXc1Tq9XW9mp/cyaPVsqVqqU4PiOP/+UO1XQvTnfBA25QwIhQiDk8rznzJ1rxALeakv1dPv17i17du82gv2CerWw0WPGGOGG99a0cWMj6hAk/DR/ePjwBJc2q/5UP3z4kAy95x5p1qSJbh92HIcnvnLlSiNafXr1kr81NowslE8mTXLUmaNeL4R7hS74YT7d1IvcpaIPoZ4ybZqjnrWRL29euUuFDEK4VEUfNvzRR63DyX4/MXKkEe4R2ub2224z4125csWIXF7t29lSOhaEG78wmjRsKEMGDZJTp05JCf3VMPa115y7N4xxA3nwgQckRn9J4FcE7K233xFrLh06djTCfenSJYGo14+KkqlTppib5bSZM019MMN1hOE6VdZfFB3atTP7vpyvacAPEggRAiEVNoGAmBQ+9Wr79+1rLtFfe/YYAfv0s8+MJ4rCMaNGyeuvjZW/9vzl+Kk/Qr3Sb1Roq1atmuDSQnyaq5BanrTzQQj5YA0twOB5dlav9ye9adSoWdOUYT433XSTHDlyOEG4pVP79rLhl1+kQsWKpp7zxxOPPy5r1AuHQcx+/+MPc1NxrpPUdp48ecx5IkQB+1XT/GLq1ZO8+fLKaaeQEI6ldCwIKG4OMIRAuqu4LtRfO4305uZq/fr0kd9/+80UP6MeNsIwtWrXljb6C+dzvSbI2oHh5ojwFGzU009LtWrVpJyGWhD62bp1q0DcYfgF4Jye6cv5mg74QQIhQiCkxLuZerawdevWJbg8Z8+elc7q4VmG/OwcOXPKCBXK8uXLS07dzpU7tzmcSePfzoYwizvhRh1LZK36qHtUbxwIlcCzbNqsmTm0ft16q4r5hhDh1wDEqYreLCCwllneNvYRo7f6Q4we80DII7cKtKu10nNHyGXjhg1SV71XpPlhjJ9UED+ZMEF279rt2sTh2eOAu7ESNYgvWOoUP0cRblwIkeTKlcuESay1BYisJdxWXws1XAXxrq1rBRDv8irOsOGPPGL+rHpgA8MNAeLtyXw5X099sJwEgpFASIVNEJ+FHXEKbbi7KFioRMx78JAhZmEQYQB47O4MnrcnO3ToUKJDpzWEACt5661SrHhxs+0cajEF+oHFSFjJkiXNt/Xh7FWiLM5l8RM3CHjQrn/WDWaAerIIT5w9c8bE4+HZLl2+XN7/8ENrCMd3cmM5KrpsuFtwxHoBDL80LMN6gav9Hb9YiRscDDclGK6B8x/KwB6LvUmZL+ebVD88RgLBRiCkxBs5wLDybsIRzhdm2EMPmYW8MfozvpJ63lW0PhYzfTV3YY+bb7nFdLNZ4+mWZw7v3tWKxwu7rw+/YEEVcWHXP+tGgrACwhO1NXRTt1Yt+Vi9biz+IVMkpkED12mkaL9KlSqJ2uGXBsbBrxrLcqon7mpVNRwC27Jli/nGQjIMc61WubLjr5xmnSBm//rYsea4pw87ztfT2CwngbQkEFLivUI9TFht/VmOlDPLGjVuLMh+WK4hBGRhwJuD0EzThTHLY3VdqLTaJvUdXS86QWYIUtoQOjijXi9CB8s1WwNWp05dKVasmKMriCh+JcDzhScdKIM3+5Wmzz3/4gumSywkIvVww4YbYRtXLz+l496pi4WINVs2VGPzCDcdOXpDiK1ysH7qv/+1dg33nrqwC7NuWts1awQ2asxo8219YJF2lmbI1FRRh/0TH/PGQq9ldp2vNR6/SSA9EQipmDdiyYijIu1stmadrF27Vv6lmR7Vq9cwzCd89JFZ8IK3h5RCxIXhHVfSNDT8ZPfVMkZklAUaflmvMfbsmnZoLXa+pHnIsIsXL8qM6dOka7fuMl/zoDesX69ph5kd83n15Zd9HTLJ+gjPIIaMBdMqVaqaDJdSpUpJnbp1TQhi5owZSbb39iDOYZneKMG3oN4wrF8Wo52E2uqrv+bHR+kvBcTjMQ+kZyIWb8X2sTiJEBYYVa9RU7bpAi3i3bj5Iktma7yHvn3bNrNoifetIKNolj5t+enEibacr3Uu/CaB9EQgpDxvgH3umWcEIgWPOiYmxiyOXZfr8sa4cTJ50iTDvn+/via9rXDhwgJvuXTpMjJWc6NhiSLcbmLeVhx8ij6AggdJ6us4yI7AAzgfffCBzJw+3fSFj6dGPinIsYYnHq3531is++fSP/LOW28lyN22+nQ0jN+45mZ81zrO+0hZROgCNyPE9BEuwRxRjpsJzN+xEIqBsDbWxURkg1zQ2DZuRD8uW2b6tz4wj/nz5gkewLlDM3aQiok0ya6dO1tVTE495oYbD240eLgKwo24epdOnRxzRgOMi+t6u4ahuvfoYfrw5nwdg3GDBEKIQMg9pON8bSDOiIla8WDnY9hGnBYe+M4dO4y4uh73dh99wMOPjY1Nsgnmg1CJc1w4yQZ+HERueRmNGeNBIku0/ejONLUe0kGaIPK8cT4wdwuYCFPhPBGbh6cOQf5TQyRWmMo0dPnA4iW8bnjmuCG4M4RicmtmEBZInRdcU+N83Y3PMhJILwR8CpvgZVJ4J0kgzI63CroTFee5I94ciJiztejm3Le77eTm465NSssQQtry++8pbe5VO2/PByKbVLqfNRiEPbk542ZsZepY7fBtx/k6j8dtEkhrAj6KN/7Bhb0q4P5lLUC4+VKqtL70NozvY8jHhhlxCBIIGQI+hU1C5qx5IikigLf63aShpsOa355U+AOd33zzzcYbduclp2hwNiIBEkhAgOKdAAd3SIAESCA4CIRctklwYOcsSYAESMA/AhRv//ixNQmQAAmkCQGKd5pg56AkQAIk4B8Bird//NiaBEiABNKEAMU7TbBzUBIgARLwjwDF2z9+bE0CJEACaUKA4p0m2DkoCZAACfhHgOLtHz+2JgESIIE0IUDxThPsHJQESIAE/CNA8faPH1uTAAmQQJoQoHinCXYOSgIkQAL+EYjMX6Cgfz2wNQmQAAmQgO0E+GIq25FzQBIgARLwnwDDJv4zZA8kQAIkYDsBirftyDkgCZAACfhPgOLtP0P2QAIkQAK2E6B4246cA5IACZCA/wQo3v4zZA8kQAIkYDsBirftyDkgCZAACfhPgOLtP0P2QAIkQAK2E6B4246cA5IACZCA/wQo3v4zZA8kQAIkYDsBirftyDkgCZAACfhPgOLtP0P2QAIkQAK2E6B4246cA5IACZCA/wQo3v4zZA8kQAIkYDuBSF9HjIpuIEWLFU/UbM2qFbI/dl+ichaQAAmQAAkEnoBPr4Tt2qOPW+G2prVm1UqBiKd3y5Ili+TLl0+OHTsmly9f9nq6uXLnlhzZs8vBgwe9bsOKJEACJJAaBHzyvN153M6TioqOUe97r3ORx+209NIfe+IJ6de/v7w29lX58P0PPM7R9cCUadOkdOnSUj8qygi/63HukwAJkIBdBHwSb28mBe/cGwsWL92bc2EdEiABErCbQJotWMJLp5EACZAACaSMQMA975RNI7CtENNue+ed0rJVK7l69aqsXrVKvvryS4mLi0tyoHbt28sdTZtK/gIFZOvvv8t0DZPs3LnTbZuevXtLixYt5PTp0zJ1yhRZs3q123osJAESIIHUIBBy4l2gYEFZtGSJZM2a1cGrWfPmMvS++6S9CvqJEycc5c4bs+bMkYoVKzqK6tSpI/0HDJCHH3xQFn7/vaMcGxM//VTKlivnKGvTtq0s//FHuXvwYEcZN0iABEggNQmkWdgktU5qzty5RrjXrlkjLVW0+6mHvGf3boGov/DSS26HvbNdOyPcp0+dkm5dukhMdLTMnD5dMmbMKCOffDJRGwj3e++8I/VU4Ec8+qhcuXJFGjZqJHcNHJioLgtIgARIIDUIhJR4lyhR4kYK4NGj0r9vX/lrzx5Zt26dEeQtGga5fv26W4Y/qKfeumULuaNxY/l182Y5euSIPDlypBHlQoVuTtRm3rffyptvvGG8+LnffCOPjxhh6nRR4aeRAAmQgB0EQipsgvAIDILtbGfPnpXOHTs6FyXYvnDhgqb+HZeOnTpJPfW6EfPOkSOHZMqUKUE9a2fO7NnWpvmeP2+evK5iXqx44oeXElTkDgmQAAkEiEBIiXfhIkUMliOHD/uEp2atWjJp8mTJnDmzaYcHd5J6eCfWzZOkWBjNkjmLT+OyMgmQAAmklEBIhU2QVQIr77Tw6A2YJ/7zHyPcixYulLoq5JUrVJCa1arJxYsX3YZaateuk6Bby0s/edL9YmiCytwhARIggQAQCCnxXrF8uUFSu3ZtKVOmjANPI41lb9eUv+U//eQoc94oXLiw2Z34ySdyShctYY2bNEmQsWIK4z8efOghs5hplb30yitm01NaoVWP3yRAAiQQKAIhFTa5dOmSfP7ZZ9K3Xz+ZrVkna9eulX9pznf16jUMrwkffeSW28aNG6VV69YyQcV76Q8/SP78+aVO3bpu66IQMfFV2vfGDRvM4/K3liolcVfjZNTTT3tswwMkQAIkEEgCIeV5A8xzzzwjM2fMMA/nxMTESC31wq/r/94YN04mT5pk2FlZJ1byCbJF/vjjD8mWLZt5uKeuvrtk8aJFgtRBq65pGP+BMbLrC6qwQArhhrf+4LAHZO9e797r4twXt0mABEggJQR8eqvg8BEjUzKGxzZvjH3R47FAHEA45Nq1a3Lo0CGvusOTmWVuu01279pl4t3JNSp5661yRp+w9PTgT3LteZwESIAEUkogIkvWHGO8b5whyVfCet+PmHd/b93ymy9NfK6LFMFz58553Q6PzyPHG5kj3hg8bixq0kiABEjAbgI+ed6YHF4Li3+QwR/D62CD4b3f/pwj25IACZBAahLwWbxTczLsmwRIgARIwDsCIbdg6d1psxYJkAAJBDcBindwXz/OngRIIEwJULzD9MLztEmABIKbAMU7uK8fZ08CJBCmBCjeYXrhedokQALBTYDiHdzXj7MnARIIUwIU7zC98DxtEiCB4CZA8Q7u68fZkwAJhCkBineYXnieNgmQQHAToHgH9/Xj7EmABMKUAMU7TC88T5sESCC4CVC8g/v6cfYkQAJhSiAyf4GCYXrqPG0SIAESCF4CfKtg8F47zpwESCCMCTBsEsYXn6dOAiQQvAQo3sF77ThzEiCBMCZA8Q7ji89TJwESCF4CFO/gvXacOQmQQBgToHiH8cXnqZMACQQvAYp38F47zpwESCCMCVC8w/ji89RJgASClwDFO3ivHWdOAiQQxgQo3mF88XnqJEACwUuA4h28144zJwESCGMCFO8wvvg8dRIggeAlQPEO3mvHmZMACYQxAYp3GF98njoJkEDwEoj0depR0Q2kaLHiiZqtWbVC9sfuS1TOAhIgARIggcAT8OmVsF179HEr3Na01qxaKRDx9Gg5c+YU/B06dEiuXbuWJlPMnz+/FClSRDZv3pwm43NQEiCB0CHgk+ftzuN2RhEVHaPe917nIo/bdnvpH338sVSvUUO6dekiv6aReC5eulSyZs0qgwcOlJUr0udNzuMF4wESIIF0RcAn8fZm5vDOvTHbvfQMGbyZVqrWOXLkiBQtUlQO/f13qo7DzkmABEKfQMDF21tk8NLTa4jF23PwtV6Lpk19bcL6JEACJOCWQJqJt9vZBKgwT5480r1nD4lp0FAO7N8vb44bl6jnJnfcIc2bN5cPP/xQGjduLNhfvWqVvD9+vKlbrXp16dqtm5QqVUr+2rNHFixYICuWLzfH7r73XilatKiM/u9/Hf2ifvfu3eWbb76RNatXO8qf0jqnT5+Wd956S/oPGCBly5aVp5980nEcG+XLl5eOnTpJ+QoVZP26dfL1rFmyX+dNIwESIAFPBHxasBw+YqSnflJU/sbYF1PULqlGZcqUkW++nScRkRGOaligPHr0qBQqVMgR837rnXekZatWcuTIYSlYsJCpu2nTJunRtauMVHEdMGiQo7218flnn8lzzzwj02bMkKrVqknvnj1l44YN5vDkzz+XulFRsnXrVunUvr0pK1GihCxcskR27twpbXWspT/+KIV1wbK8Cri1aDrm2WelV+/e1hCO79GjRsmUL7907HODBEiABJwJZHTeCYXtqSqsEO6VK1cKwhT9VBgPHz5shNvd+RUoUFAmfPSREdf77rlHcuXOLXfpgiLE9ZGHH5aaKtKjnn5arl+/Ln369pWMGTPKd+qFw+5s187RZZUqVcw2PGvL2nfoYDYXLVxoFSX47qlzg3BfuXJFRjz6qNStVUtefP55M9YYvUnAm6eRAAmQgDsCISXet6lw5siRQ47qwuBgDVHs3btX1mkYAp6w5em6QpirYY5XX37ZeMcnTpyQc2fPSptWLaVBdLTMnzdPzp07J1OnTJEdf/4pGXTRExkrM/QGAYtSTxtWqnQpyZotm/HiIyMjpVbt2qa8YaNG5nuatndn3Xv0MMX/fuQRwTxOnTolkyZOlImffGLG6tmrl7tmLCMBEiABCSnxbhQvlhBsZzt58qTHDA/XlD2I/F97/pIGDRvKm2+/LV+q8M5VES9brpzpEql+ZzSGffz4cSmuYRFYjx49zfcjDw8335Yo42YC8T948KApd/0oWbKk8bK//+67BIdmzZxp9qtUrZqgnDskQAIkYBEIqQVLLCLCECZxtVMquIg3u5qrR46wybwF8x1x8KtXr8rly5ddm8naNWukTdu2UqlyZWmsi53nz5+XDevXy2n1nqPVay9cuLDJ6bYWORN1oAX/yvIvQf+uhkVWWG6dC40ESIAE3BEIKc97Q/ziIbI3XK2Iiqk3hrg2FjCR7dFSs1Eq3n67VNd4tuuDPTOnTzfdIUukePHi8vPPP5v9NSrqBQoW1GyXG974nNmzPQ57/MQxyZQpkwn1OFeqXaeO2UWWC40ESIAE3BEIKfFeHp/KV6dOXSlWrJjjfDt17iy5NX3QG7tdxRqGcIolnhDjChUrJmiOBdG4q3EmnRCLmLM1vQ82fdo08z1AFz2xyLlg/nyz7+5j+7btpviFl15KcPiJkTeyetarJ08jARIgAXcEQipsglg0Mjuat2gh87//3uRMYwETsWMIKRYckzOIbavWraVbt+7mPSSXLl0y8W8sRLrarl07TSwcoRdLpBEmgagjNh4bG+s2LGL1gyyW7xcvNimL3y9aJDt27NAUxKrG80dMffy771pV+U0CJEACCQiElOeNMxt2//3mIZmIjBFSPybG5GPjRVDWy6CsGDfEHBYXF2e+rQ+kASK7JGNERiPazTR0gpdZIZ5tLL4dthfqDQK2T7NanPv5c8efpvzHZcvMt6cPLGT21Ad7EKMvoYuXuOnkz19A9uzeLXfqDQQ3DhoJkAAJuCMQcg/pOJ8kYt/wfpHx4ashFFJOM0wgrEghTG2DZ19aHzDavm1bag/F/kmABEKAQESWrDnGeH8eGZJ8Jaz3/Yh59/fWLb/50sTnuseOHXObKeJNR/DM0f7ixYveVPe7Dn4RHNfxaCRAAiTgDQGfPG90iNfC4h9k8MfwOthweymVP7zYlgRIgARcCfgs3q4dcJ8ESIAESMB+AiG3YGk/Qo5IAiRAAvYToHjbz5wjkgAJkIDfBCjefiNkByRAAiRgPwGKt/3MOSIJkAAJ+E2A4u03QnZAAiRAAvYToHjbz5wjkgAJkIDfBCjefiNkByRAAiRgPwGKt/3MOSIJkAAJ+E2A4u03QnZAAiRAAvYToHjbz5wjkgAJkIDfBCjefiNkByRAAiRgPwGKt/3MOSIJkAAJ+E0gMn+Bgn53wg5IgARIgATsJcC3CtrLm6ORAAmQQEAIMGwSEIzshARIgATsJUDxtpc3RyMBEiCBgBCgeAcEIzshARIgAXsJULzt5c3RSIAESCAgBCjeAcHITkiABEjAXgIUb3t5czQSIAESCAgBindAMLITEiABErCXAMXbXt4cjQRIgAQCQoDiHRCM7IQESIAE7CVA8baXN0cjARIggYAQoHgHBCM7IQESIAF7CVC87eXN0UiABEggIAQo3gHByE5IgARIwF4CFG97eXM0EiABEggIgUhfe4mKbiBFixVP1GzNqhWyP3ZfonIWkAAJkAAJBJ6AT+/z7tqjj1vhtqa1ZtVKgYjTEhIoULCgxF29KidOnDAH8ufPL0WKFJHNmzcnrOhmr3DhwnLu/Hk5c/q0m6MsIgESCFcCPnne7jxuZ3BR0THqfe91LvK4HU5e+rLly+XK5ctSrUoVw2Px0qWSNWtWGTxwoKxc4flmB5Ffqm137dolbVq29MiSB0iABMKPgE/i7Q0eeOfeWDh76UeOHJGiRYrKob//ThJVhoxckkgSEA+SQBgTCLh4e8sSXnq4hlhaNG3qLSbWIwESIAG3BNJMvN3OJkCFWbJkkTvbt5fWbdrIkUOHZObMmbJxwwbTe4OGDaV169by888/y4zp0x0j1o2Kkg4dOsjatWtlzuzZphz9tL3zTmnZqpVc1Zj16lWr5Ksvv5S4uDhHu8jISBly991SvUYNicyUSX7euFE+mzw5yRh1/wEDpGzZsvL0k086+sFGVL160qNnT8mdO7csXLhQlixenOA4dsY8+6zE7tsnq376SfrddZeUKl1ahmj45dy5c5LUXEqVLiVDhtwtS5YsSdDvoyNGSJbMmeXFF15wjBUTEyNt2raVzz/7TLZu3eoo5wYJkED6IeDTguXwESMDOvM3xr4Y0P7QGeLEVkzZufMfVLTuu/deKVasmCzU7QwZMkg7Fagdf/4pmVW81qm4Z82WTe7q10/WrF4tWGRcpPUQm3a2oxryaK+CjsVH1PlORTZHjhzOVeS8LjCi7wP795vyLdu2JYh5L/3xRymsC5blVcCvXbtm6kz45BPBjcXZMLfbtI5zzHv7zp1y8cIFnXMWiYiMMNUb1q8v165fT3IuGbTmkmXL5K89e6Rl8+amXd68eWX1unVmu3XLFrJ7126zPUtvXhUrVZLOHTvKlt9/N2X8IAESSF8EQi6oOvubb4zgLlJRbaJiCDGGV3qHhioGDxkisbGx8vprrxnx/ujjj83VeGXsWCPcc7UthBs2Z+5c08/aNWuM2PXr3Vv27N5tBPuFl14ydUaPGWOEe9OmTdK0cWMj6n9u3y7Zs2eXh4cPN3W8+bhLPWcI95UrV2TEo49KvTp15L133zXC7a49bjKHDx+SoffcI82aNNHtw5LcXPbrjQQ3lWJOaZ7de/RwdN+rV2/HdpnbbpPLusBK4XYg4QYJpDsCISXeRYsWNeIKoRp2//1y8OBBI8a9NRQB69S5s/n+6IMPBCJ7yy23yJtvv23CK6dOnZLHNYQAK1GihOTLl0+OHT0q/fv2Nd7qOvVQu3XpYgTtunq5sDGjRgk81l7duwvG3K4e9oh//9scq1q1qvn25qOL9gvD+LiBwKt/c9w4mT9vntvmGL+53oyW/vCDuRmhkjdz+eWXX4y3bs2tpYaPEA66dOmSNNSbDwwMES5iuMTg4AcJpFsCIRXzbhofDoAATZsxIxH0krfe6iiDKK9UL7uVChjEcJDGoa0QRrP4fiDYznb27FkTSrDKjh07Jjly5pQRjz8u5cuXl5y6nUvj1bBMGv/21ooVL27m4CrWs7/+2sSeXfuBuEN0nc2buXyj4RDEs9tpbB855oi744Zz8eJFqVmrlkREREiHTp1Mt65zcR6L2yRAAmlPIKTE+9aSJR1Ey5Yr59i2Ni5o2MCykydPytYtW6SKesgIJ/zhtDCHeDTsiIYjkjIsVEK4ET/HDQChBoQ+fLUsGr92FWP0EevhiVXL83cex5u5zPv2W3n51VclWmPktWrXNgucKENYCfvNW7SQRo0amW5nubn5OY/HbRIggbQlEFJhE8tTRjihWuXKCf7KlSkjddS7tAzZFBDuuKtxJm79/Iv/WzxFVgmsfMWKVnW338MeesgI95jRo6WSet5VtD4WM321kydPGE/ddeGzdu06XnflzVxwgzhw4IAJC1nx7umacQMPHzeEjup1wxuHF49fGTQSIIH0SyCkxHuZPrkIq6+hgZtvvtlBHVkhCKOM1YVKGMIb8EARJrmzbWsTNuiscecaNWua4yv0qUZYbfVGy6joW9ZI48LI9liuaXoZ2xMNegAAOIxJREFU9QEaZKJA/KdNmeLwnH1ZqLT63al9wjAny9D/g3pz8MZ8mcsKzXRBSmELfWITMX08do+Y99+6PgCPHIuh1s3Lm7FZhwRIIG0IhFTY5IKm0M3SnG4IMdIBN6xfb4S5oYYCkA5ovUtkwsSJZv/jCRNMetyop5+WV1XYP/joI4lSwYaYIce5r2aqzNasE+R+/0sX8apXr2Gu0gStB+FH2iBuDEhNRJZKJU2vcxeuSe7SYvwF3y8UxNqReojUQMSg8+TJk1xTc9yXuXz11VfSq08fc+NZ+P33jv6XaRphby2HOee/OypwgwRIIF0RCCnPG2RHPvGEI0sDHjgEMSJjhHz1xRfy/HPPSQfNXa5WrZoJDbwSn/L3zZw5JrsiV65c8vIrr5gL9Nwzz8hM9dYRasAiH2LC1/V/b2gWyORJk0yd/v36CrJU8PIo3DBKly4jY+O95xv5KKaa+XDd/98Rkb1798qDwx4wfd1aqpSZM9INMQe3piEOV/N2LligxM0JNlV/MVj2hd6sYDhfK13SOsZvEiCB9Ecg5B7ScUZcRLNOkPWBB1P8MYgzvNtD+rSmO8PDLvDAd+7YkeDpS3d1kytDX8hYSemcAzmX5ObK4yRAAmlHwCfxxru88U6SQBjeKjhj6heB6Ip9kAAJkEDYEfBJvEEHr4WFiPtjEO5wfSmVP9zYlgRIgAQsAj6Lt9WQ3yRAAiRAAmlHIOQWLNMOJUcmARIgAfsIULztY82RSIAESCBgBCjeAUPJjkiABEjAPgIUb/tYcyQSIAESCBgBinfAULIjEiABErCPAMXbPtYciQRIgAQCRoDiHTCU7IgESIAE7CNA8baPNUciARIggYARoHgHDCU7IgESIAH7CFC87WPNkUiABEggYAQo3gFDyY5IgARIwD4CFG/7WHMkEiABEggYgcj8BQoGrDN2RAIkQAIkYA8BvlXQHs4chQRIgAQCSoBhk4DiZGckQAIkYA8Birc9nDkKCZAACQSUAMU7oDjZGQmQAAnYQ4DibQ9njkICJEACASVA8Q4oTnZGAiRAAvYQoHjbw5mjkAAJkEBACVC8A4qTnZEACZCAPQQo3vZw5igkQAIkEFACFO+A4mRnJEACJGAPAYq3PZw5CgmQAAkElADFO6A42RkJkAAJ2EOA4m0PZ45CAiRAAgElQPEOKE52RgIkQAL2EIj0dZio6AZStFjxRM3WrFoh+2P3JSpnAQmQAAmQQOAJ+PRK2K49+rgVbmtaa1atFIh4Wlr58uXlzNmzcmD//rScBscmARIggVQl4JPn7c7jdp5dVHSMet97nYs8bqeGl16mTBmZPXeuXLt2TSpXqCBXr171OD4PkAAJkEAwE/BJvL05UXjn3lhqeOnHjx+XK1euyPnz5ync3lwE1iEBEghaAmm2YAkvPdB28uRJqaRhk7q1agW6a/ZHAiRAAumKQMA977Q+u6dHjZJjR4/K++PHm6mMefZZid23T35ctkz6DxggJUuWNNsfT5ggERERMuyhh6Smiv3hQ4dkyldfycYNGxKcQt68eaVr924S06ChHPr7b3nj9delVu3aEhUVJa++8orghkEjARIgAbsJ+LRgOXzEyIDO742xLwa0P3S2bccOOXP6tNSJ976379wpFy5ckMyZM0tk5P/uVWtWrxbEyPMXKOCYw/Xr1+WB++6TJYsXm7KKlSrJjFmzJGPG//1AQTz98OHDcsstt0i3Ll3k182bHe25QQIkQAJ2EfifKtk1YhqMky1bNtny++8SEx0tgwcONPHwqHr1JM9NN8n9Q4dKrerVZfGiRZIhQwZ5YNgwM0MI9hfqieN70cKF0rRxY+nds6ccPHjQCHcanAaHJAESIAEHgbAQb3jLPbt3l6NHjsjKFStk3dq1BgDCJPCyz2pq4aPDh5uyokWLmu/qNWpI1qxZJTY2Vobdf7/s19RDhFTatWljFkUdBLlBAiRAAmlAICzEG3FpCLhlVpx669atVpFcunTJ1ImID600Vk8bhvCKsyEEs09j6DQSIAESSEsCYSHeiGX7alYLjaTQSIAESCDdEQgL8U4J9WVLl5pm0dH1EzTPlTu3lChRIkEZd0iABEjAbgIUbw/Ef964US5qiKRwkSIyafJkqVK1qjRr3ly+nT8/QdaKh+YsJgESIIFUJfC/3LlUHSY4O++hi5xfz54j9TRLZbr+weKuxpnFS2thMzjPjLMmARIIdgIh6Xlb8WrHxXGJeVuLl9fi4hxVrA3rGPa3b9smtWpUlzGjR5tUws/UA69fL0pOnjhhVec3CZAACaQJgZB7SCdQFPFAzxtvvSXnzp2TJ//zH0e2CnLGN27aZHLCq1SsKJcvXw7UkOyHBEiABLwm4FPYBC+TCtQ7SVLjrYJen7UXFfFGwkqVK5sHcurqo/BYwMyXL5/Uj4kxD+7s1Cc3KdxegGQVEiCBVCHgk+eNGeC1sPgHGfwxCHdav/fbm/kjq2Tip59KkfgHd6w2v/36q3nakuJtEeE3CZCA3QR8Fm+7J5gexkN6YM2aNc07UjasXy9xbmLl6WGenAMJkED4EKB4h8+15pmSAAmEEIGQzDYJoevDUyEBEiABtwQo3m6xsJAESIAE0jcBinf6vj6cHQmQAAm4JUDxdouFhSRAAiSQvglQvNP39eHsSIAESMAtAYq3WywsJAESIIH0TYDinb6vD2dHAiRAAm4JULzdYmEhCZAACaRvAhTv9H19ODsSIAEScEuA4u0WCwtJgARIIH0ToHin7+vD2ZEACZCAWwKR+QsUdHuAhSRAAiRAAumXAF9MlX6vDWdGAiRAAh4JMGziEQ0PkAAJkED6JUDxTr/XhjMjARIgAY8EKN4e0fAACZAACaRfAhTv9HttODMSIAES8EiA4u0RDQ+QAAmQQPolQPFOv9eGMyMBEiABjwQo3h7R8AAJkAAJpF8CFO/0e204MxIgARLwSIDi7REND5AACZBA+iVA8U6/14YzIwESIAGPBCjeHtHwAAmQAAmkXwIU7/R7bTgzEiABEvBIgOLtEQ0PkAAJkED6JRDp69SiohtI0WLFEzVbs2qF7I/dl6icBSRAAiRAAoEn4NMrYbv26ONWuK1prVm1UiDi6dEKFCwocVevyokTJ5KcXubMmSV//vxy/PhxuXTpUpJ1eZAESIAE0oqAT563O4/beeJR0THqfe91LvK4bbeXvmz5crly+bJUq1LF45xwYMCggfLvEY/JZ5Mny/89+2ySdXmQBEiABNKKgE/i7c0k4Z17Y6nlpd99771y/wMPyLjXX5fJkyZ5M5UEdTJm4DJAAiDcIQESSJcE0kyp4KWnht18882SLVs2KVigQGp0zz5JgARIIF0QCLjnnZZnNfzRRyUm5sZN4Y5mzSRv3rwya9Ys2bB+vdtpRUZGSrv27eVO/fvn4kX5dOJEt/XGaPgkdt8+WfXTT9LvrrukVOnSMmTgQDl37pwUKlRIQy2DpGLFinLq1ClZvXq1fPXFF6afUqVLyZAhd8uSJUtkyeLFjr4fHTFCsmhs/cUXXnCUYd5t2raVzz/7TLZu3eoo5wYJkAAJuCMQUuI9aPBgyZIliznP0iqw+Dt79qxb8YZwL1cxzpcvn4NLs+bNZc/u3Y59a6NX795y8cIFEwuPiIwwxdmzZ5e6UVHy9jvvilWGAy1btZLeWr9Du3Zy+dJl6dKtm9SsVcsh3rih3Dt0qOlj6tQpsnvXjfEg6BUrVZIv4oXfVOAHCZAACXggkGZhEw/z8au4RtWqMuWrr0wfkz75RCpXqCAvv/SS2z4/0Xg4hPvw4cPSp1cvadG0qaxcuVJuLVXKbf2sGoo5fPiQDL3nHmnWpIlp9+xzzxnh/uTjj6V2zZpyz5Ahcv78eSlbrpw0aNhQ9u/fb/aLOaVWdu/Rw9F/r169HdtlbrtNLuuC6pbff3eUcYMESIAEPBEIKfG+qqmA+INduXLFiOG1a9fcnnsNFVsc66geMsIqe/fulcEDBhhRdtfg+vXr0lwFfukPP0hsbKyp0kO96qaNG8vLL74oZ06flh+XLXPcPJrccYep88svvxiBr6o3FljL1q3NHJGG2FDbwooWLWp+MTBcYnDwgwRIwAsCIRU28eJ8TRXkcWfKlMkItWve9xqNWXfo2DFRV6hn3Risg/Cso+rVk/uHDTMCnDNXLrn99tvNYSt8883s2SYO365DB9m8ebOULVtWtm/bJhc1xo5wSkREhHTo1Mm0mT9vntU1v0mABEggSQJhKd7FS5QwUE7rAqOrHTp0yLXI7MPzdrUJGppBeAQGL/7SP/9IxowJf8zM+/ZbefnVVyW6fn2pVbu2INaOMix2Yr95ixbSqFEj08esGTPMNz9IgARIIDkCCZUmudohcnzzpk3mTG6+5ZZEZ1RBs0a8sSIa6oBwIzzTv29fKa8eNR4AeuvNNxM0h7d+4MABKaE3DCvePX36dJn99deCG0JH9brhjR87dswsriZozB0SIAES8EAg5MTbeqQd6XyeLC4uTs6cOSO5NMzRuUsXRzXEnqPrRTv2k9qwYtgHDx6UtWvWmKrwurs49We1X/Hjj8bjbtGypRw7etTExzHPv7UtPHIshq5etcqqzm8SIAESSJZAyIn3jOnTzEljwXCypt1Zed+uJF7SRUbYC5qNMk3DFcg+WbBwoWSM8A4J8rbhOcOjRvtXxo6VFSrA8Mhd7av4DJisWbPKT5qeaNkyXeC0YuMz1BunkQAJkIC3BLxTKm97Swf1kDeNRccMGTJI3bp1pVHjxo5ZOUetZ6pYfvTBB/KPxqmrVqsm9fUhGWSMTPnyS1M/UYzbJeYNz/mxf//bhE3QHoucEOepU6Ykao8FSusXgXUclb7QB3JgCK1gzjQSIAES8JaAT28VHD5ipLf9elXvjbE3vF+vKvtYCW8HxIM0p1WQPaULWl0WK1ZM/lExPnrkiFXk0zfaI2SCdEMaCZAACdhBwKdsE7xMKlDvJEnttwrigRf8eWNW3rY3dd3V8be9uz5ZRgIkQAJJEfDJ80ZHeC0s/kEGfwzCnV7f++3PebEtCZAACdhFwGfxtmtiHIcESIAESMAzgZBbsPR8qjxCAiRAAqFDgOIdOteSZ0ICJBBGBCjeYXSxeaokQAKhQ4DiHTrXkmdCAiQQRgQo3mF0sXmqJEACoUOA4h0615JnQgIkEEYEKN5hdLF5qiRAAqFDgOIdOteSZ0ICJBBGBCjeYXSxeaokQAKhQ4DiHTrXkmdCAiQQRgQo3mF0sXmqJEACoUOA4h0615JnQgIkEEYEIvMXKBhGp8tTJQESIIHQIMC3CobGdeRZkAAJhBkBhk3C7ILzdEmABEKDAMU7NK4jz4IESCDMCFC8w+yC83RJgARCgwDFOzSuI8+CBEggzAhQvMPsgvN0SYAEQoMAxTs0riPPggRIIMwIULzD7ILzdEmABEKDAMU7NK4jz4IESCDMCFC8w+yC83RJgARCgwDFOzSuI8+CBEggzAhQvMPsgvN0SYAEQoMAxTs0riPPggRIIMwIRKb0fKOiG0jRYsXNX1J9rFm10hxes2pFUtV4jARIgARIwAcCKRJviHZUdIxXwzjXo4B7hYyVSIAESCBZAikU7xKmY3jVngS5a48+xitHHQi4JeKe6ic7UxsqlC9fXs6cPSsH9u9PcrT8+fNLkSJFZPPmzUnW40ESIAESSC0CfsW898fuTXZeEGsrdHJDxBsk2yYtKpQpU0Zmz50ri3/4QSIjk76nLV66VKbNnCkxDdLnuaQFP45JAiRgLwG/xNvbqboKOMIu6c2OHz8uV65ckTNnzsjVq1fN9CDov/z6q7z3/vsJpnvkyBGJuxonh/7+O0E5d0iABEjALgJJu5gBmAUWNuGh3/i7scCJshlTvwhA74Hr4uTJk1JJwybOlj17dsmWLZsJkTiXt2ja1HmX2yRAAiRgO4GILFlzjPF11KLFSph49tYtv6mnetptc5RXqFTF1MM3/nLlzm3q4hja2mkxMTEy/NFHpWevXpJNRXnHn3/Ks//3nBQoUEC2/P67mcrTo0ZJhQoVZMOGDdK5Sxfp07evlChZUjJnySK36nc+jXVv2bJF+g8YIN26d5cflixJcArejDHm2WeldOnScuzoUXnwoYdk6H33Sa3atc0czp07l6C/rFmzSodOneTh4cOlWfPmcv36ddn7119y7do1R71BgwebOr9q/P2BYcPkIa2LXwT79u0zdRDaeeTf/5YOHTua9nv27EnQ3tERN0iABIKKQIr+DUt4zohfw3veH3tDJNydNeq5GtqhjZ2e9+TPP5e6UVEJprLtjz/kdvW0d+3aJW1atjTHtu3YIWdOn5Y6tWrJrNmzpWKlSgnaQPDvbNNGlv74oxTWBcvyZcs6hNDbMbbv3CkXLlwwcfXMmTM7+ocgt23dSnbv2m3KChUqJIs0/p5FbxzOBtFv0qiRXL582RT/tHq15Ncb0LFjxwQLqbA3Xn9dxr/3nsz//ntzozCF8R9o30gF3QoNOR/jNgmQQPAQSNWY941YNxYsb/x5s8AZaHTwbiHcly5dkocffFCi1Mt9Y9w4I9xJjdVNPe9+vXubKn9u3y6V1SPv0K6d2ya+joFQTGxsrLRt1Ur6q3e/X7NbMmbMKM8893+O/ud8+60R7hUrVkhL9boxH9xoINRTpk1z1LM2cubMKf996ilp1qSJfDppkrz59ttGuNF3F/XeMdYfesNC+4mTJ1vN+E0CJBCkBFI95p3WXO6MF9x7hgyRNeqlwsa/+64UKlhQevXp43F6cXFxRvBRAV6x5em6a+DrGAh/tG/b1ni/O9UTf3bMGPlwwgQTmkH/JUqUkJtuukmOHDksQwYOdAzZqX172fDLL1KhYkVHmbXxkIZMlmkWjGVN7rjDLKq2018K8PRhXVXEsQBbo0YNqxq/SYAEgpRAqnre6YEJwhsQX0u4rTnNmDHD2vT729cxEJpxDlv8uGyZiUdbIZKmzZqZOa1ftz7B3PDrYc/u3ZIhQwapUrVqgmPLNZRjWZ48eYzXHhEZIZPUy56m54q/L6dMEYRqkApZuHBhqzq/SYAEgpBAyHvenq4JwhSpbZ7GuBKfiuhp/GLFb6RSHj58OFEVZMXASuoCKhYpLXNexCylC6KWlS1Xztp0fONXREGNqR88eNBRxg0SIIHgIpD6CpbGPA4eOGDiyY0aN04wk549eybY92cn0GNYvxLwxKerFY8X9pUaC/dkmzdtMp48hL5a5coJ/spp7jri95s0/EIjARIIXgIhJ94333yziWVbT0nO/vprc3XeHT9eeuoCJB68Gfnkk9KlW7dkr9o/GqaAYZEvKfNnDHf9WiGQOnXqSrFixRxVkPaHEA085xMnTjjKXTcQr0doBnFzpBg62/gPPpTp+nRoRESEczG3SYAEgoxAyIVN8Ig7RAuLco9pfjNS5mpqhkkDFb5nNMfaMninVatVs3bdfm/fts0sWiIFb472O2vWLPl04sREdf0ZI1FnWnDx4kWZMX2adO3W3aT7bVi/3sSqq1e/sdD46ssvu2uWoGzM6NEy7s035W1dnP1VFyn/1hBJnbp1JV++fCZrBQJPIwESCF4CISfeiONCvHfs+NNxVZCxUUnDB3iwJrc+KLRQ858RL16iC4Wudt2l4GPNArnn3ntNamH3Hj3cijea+DKGxjRcRhET5kAWimVPjXxSBTuLNG/RQqLr1zfF58+fl4nvfSyTP/3UqmbaOXacNubPmycFNKNmmGahVNObFP5gP2/cKIP0ISMaCZBAcBNI1Yd0XNHgnSZ422BqP6SDJxPhvcIQHmmqj7PP0lDB4kWLHFMaqw+ytNPUuwXz58twzQVPyrDwCNGHeLpLGQzEGEmNj8wQjIsHcVJiyD4ppOGknfoQEj3ulBBkGxJIfwRCzvMGYku4sX1KF+2Qeoe8Z6Tk4fFyeLK36dORsC/16cvkDJkcVpaHu7qBGMNdv1aZv1khp06dEvzRSIAEQodAijxvy4MGhqQej3eHCW2Teg+4uzb+luGdJvcOHWqyTqy+4Mk+8dhjgvBCIMyOMQIxT/ZBAiQQGgRSJN44dev9Jr5iSO2QSVLzQerdraVKyUZ98ZS7HOqk2np7zI4xvJ0L65EACYQugRSLd+gi4ZmRAAmQQPonEHJ53ukfOWdIAiRAAv4ToHj7z5A9kAAJkIDtBCjetiPngCRAAiTgPwGKt/8M2QMJkAAJ2E6A4m07cg5IAiRAAv4ToHj7z5A9kAAJkIDtBCjetiPngCRAAiTgPwGKt/8M2QMJkAAJ2E6A4m07cg5IAiRAAv4ToHj7z5A9kAAJkIDtBCjetiPngCRAAiTgP4HI/AUK+t8LeyABEiABErCVAF9MZStuDkYCJEACgSHAsElgOLIXEiABErCVAMXbVtwcjARIgAQCQ4DiHRiO7IUESIAEbCVA8bYVNwcjARIggcAQoHgHhiN7IQESIAFbCVC8bcXNwUiABEggMAQo3oHhyF5IgARIwFYCFG9bcXMwEiABEggMAYp3YDiyFxIgARKwlQDF21bcHIwESIAEAkOA4h0YjuyFBEiABGwlQPG2FTcHIwESIIHAEKB4B4YjeyEBEiABWwlEpnS0qOgGUrRYcfOXVB9rVq00h9esWpFUNR4jARIgARLwgUCKxBuiHRUd49UwzvUo4F4hYyUSIAESSJZACsW7hOkYXrUnQe7ao4/xylEHAm6JuKf6yc40nVTIkiWL5MuXT44dOyaXL18OyKwyZswo5StUkPPnz8tfe/ZI/vz5pUiRIrJ582bTf2qMGZCJsxMSIIE0I+BXzHt/7N5kJw6xtkInN0S8QbJt/Kkw9rXXZPLnn0tMTNK/DPoPGCBTpk+Xe4be69Nwjz3xhCxdvlwGDBroUztPlQcNHixbt2+XWbNny/QZM0y1xUuXyrSZMyWmwQ1WgR7T01xYTgIkEDwEUuR5+3p6lrdteeAQ/f2x+3ztxqv6bdu1E3iyBQoUkNYtW3psM+KxxwQeLf4+fP8Dj/VS+8CIxx6XDBkyyKKFC+W7BQvMcEeOHJGiRYrKob//Tu3h2T8JkECQEvDL8/bmnK2FTWfBRllq2YULF0zXpUqXliJFi7odpmu3bka0cfDqlStu69hRWLhwYYmIjJCDBw/KsPvvl2/nzjXDtmjaVCrcXk527txpxzQ4BgmQQBASSDXPG9424t43Yt1JhzBSi9tjjz8uwx96KFH39wwdmqjMKqhWvbpA3EuVKmXizwvUG16hYZKkLHPmzDLyqacki36PGzdOjqrnDEPYo0vXruZGAWFe+P33cvXqVXOsR8+e0qhxY7OdI3t2eeHFF2Wbhk8mT5okCOmULVtWnn7ySXPc00fevHkF/dSLjpbNmzbJtKlTJTY21lN1lpMACYQQgVQTb4RFrFi3My9r4dK5LNDbV+K96WbNm5sQyrVr1xxDlLz1VilRooQcP37cLDw6DujGSBXLAYMGOYpq1qolXVTIP//sM3numWcc5c4bEO4FGvIoql7+Mo1VW8I9X4W6tHr/ljVt1kyOHT0qjVTQIeB3DRzoOJ4rd24zzsEDB4x4D9RjhXXBctTTT4vz3K2+8N24SRN5/8MPTcgF+3WjojR+P9S0mTplCopoJEACIUwgVcMmNxYrsWB548+bBc5AsV68aJFkypRJ+vbrl6DLx3XBEfbZ5MkJyiGgEFSI5SMPPyw1q1UzQnj9+nXp07evuQkkaKA7kZGR8q165hBuxKvvvftuU+XNt982wrx//37p0qmTtG3VSv744w/Jr3H4ifHjtmvTRjp37Gjq41hlzTZpdscdrkO43Uc46L3x7xvhfm3sqxJVu7Zjrs8895zcpl47jQRIILQJpKp4pyW6V195xQw/ULM5LIuIiDChikuXLsnXms3hbOfOnpU2rVpKAw1BzJ83T86dOyfwYHf8+acRyeo1ajhX1xtDZpmngg0vfpb29fCDDzqON1ERjrsaJxDo33/7zcSuu6qII7WwRnw/cXFxcumff0wb3DBwDGXeWOfOnU2sfKZmy2Cx9eTJk2auH0+YYObaVUM1NBIggdAmkGphk7TGdkC93l27dhkPuNztt8v2bdtkoIZE4C3P/eYbgUftbBDQv/b8JR3UG0ZIAtkqOXPmlLLlyplqWbNmda4uD6l3DkNe9sh4bx77efLkcSyGTnLx7hFigWGhEouUKbXadeqYpo31JjEtPr0QBbcUvsWUu95oTCE/SIAEQopAyIo3rtI7b70l4958U5AnPURDIgP0DzZWvXJ44c6GsMm8BfOlYMFCphhxaW8ewilRsqRUqlzZeNhoiCwXyyzht/bxjT4LFirkl3gX0vawPLnzSLZs2cw2PpAiCbMWRc0OP0iABEKSQEiLN8Ifz2sWR3S9aMHiY4GCBU3sGU9HWgJoXVXEtSHciFMPVpGHRw2briGRKlWrWtUc37vVq1+5YoXJDPn8iy+koS5Enjl92mR9wKs/deqUiUU7GgRwY5v+isDC69NPPWlCNgHsml2RAAkECYGQjXlb/Gd//bWJD3/8ySem6I3XX7cOJfi+XUMrMAiyJdwQ+woVKyaoZ+18/fUsef7//s+IdVb1fiHyMMStIeI33XSTINvF2cZ/8KGp5+r1O9fxZnv16tWm2lDNDbe8bRQgo2XWnDmCpzZpJEACoU0g5MV7nIo1PGEI7JkzZ0w6n7tLumD+fFPcrVt3maBC/+748bJEU/8QI0/K+vbuLafVyy6p4ZM3NEwDGzN6tPl++913ZarGpFG+au1auaPpHZI9Rw6vFyZNJ24+pulCKn4hYLF0pQr5W++8Y14JgDlX1JsNPHMaCZBAaBMIOfF2zYuGF7xJH2CB4SEWy67FL1haC5dI9UN2ScaIjNKgYUPjNR86dEg2rF9/o4lL/fhdE8PurrngyC5prdklyAtHuOaF558XZLBU05RDlONlVj9v3Chd4tMD0em16/H551Zn1uRcvq05WtVwjshk2aYphoh7t9RUROR5X7x4Uf6jDyat+uknlx64SwIkEGoEMuS8qVDCtAsvzhCPt+NhmxlTv/DpHSV4lSyeusQDPGibHg1hiHKaYXL48GE5ceKE31NE9kmhm2+WnTt2+O1xe5oMsmmOaxwfsXwaCZBAeBBIOiYQHgwSnCW8Wjw0EyjDwiX+UtOQBkkjARIILwIpEu8bT0rGOLxoX5Gl1hsFfZ0H65MACZBAsBJIUdgEJ2uFTnw98fQcMvH1XFifBEiABNKKQIrFO60mzHFJgARIgAT0oTxCIAESIAESCD4CFO/gu2acMQmQAAnQ8+Z/AyRAAiQQjAToeQfjVeOcSYAEwp4AxTvs/xMgABIggWAkQPEOxqvGOZMACYQ9AYp32P8nQAAkQALBSIDiHYxXjXMmARIIewIU77D/T4AASIAEgpEAxTsYrxrnTAIkEPYEKN5h/58AAZAACQQjgcj8BQoG47w5ZxIgARIIawJ8MVVYX36ePAmQQLASYNgkWK8c500CJBDWBCjeYX35efIkQALBSoDiHaxXjvMmARIIawIU77C+/Dx5EiCBYCVA8Q7WK8d5kwAJhDUBindYX36ePAmQQLASoHgH65XjvEmABMKaAMU7rC8/T54ESCBYCVC8g/XKcd4kQAJhTYDiHdaXnydPAiQQrAQo3sF65ThvEiCBsCZA8Q7ry8+TJwESCFYCkSmdeFR0AylarLj5S6qPNatWmsNrVq1IqhqPkQAJkAAJ+EAgReIN0Y6KjvFqGOd6FHCvkLESCZAACSRLIIXiXcJ0DK/akyB37dHHeOWoAwG3RNxT/WRnygpBQyBnzpyCv0OHDsm1a9eCZt6cKAkEE4EUibd1gvtj91qbHr8tsbZLwJ9/8QUppr8MnO348eOybOlSWfj993Lx4kXHof4DBkizZs0c+64b7737rqxZvdq1WF597TVp3qKFNGvSRI4dO5bouOsc4uLiZNOmTTJv7lzZuXNnovo1ataUJ0aOlH1798pj//53ouNWQZYsWeTDCRPkX1mzypCBA+Xs2bMSGRkpn0yaZFVJ9H3w4EH5z+OPJypPzYKPPv5YqteoId26dJFfN29OzaHYNwmELQG/xNtbaq4CDtHfH7vP2+Y+1WvVuo3kyJEjUZs2bdvK0//9r7Rp3VqOHjlijkO460ZFJaprFaz66adE4n1b2bLSvkMHU+WBBx+UZ0aPtqo7vt3NIbp+fbn/gQfk8uXLMmTQIFm7Zo2jfqXKlaVatWrm74vPP5dNv/ziOOa8MfT++yWqXj1TlCt3biPemTNnTvIcLl64YLt4S4YMztPmNgmQQCoQSHXxxsLmDbGGYN9Y4ETZjKlfpMLp/K/LWtWrmx14pp3VAxw0eLDkL1BAJn/2mbRu2fJ/FXVr9KhRsvC77xKUYefMmTOJyh586CFHWVu9IbgTb6tCvTp1zGa+/PmlTZs2xluH+E+c9Kl079ZVfv/tN6uq4/sx9ZL79Orl2Hfe6N2nj/Nugm38urhTb0yudlW9fhoJkEDoEUg18Ya3jbj3jVi3d4ubgcSLkIJlH2uoYenSH2TB9wul5K23WsWO7zOnT8uJEycc+0ltNNZQydWrV2XHjh1Svnx5qVK1qsfQgNUnvt/880958403TIijfkyMTFYPu4a2dbWatWpJtmzZ5IJ6zM4GjztPnjzORQm2r6lIW+MlOJDETrFixeQ+9eYXLVpkzqlHz57yr3/9S+D9L/3hB8mvN51HNYxTomRJ2bp1q0zUcAjCMM6GOXXv2UNiGjSUA/v3y5vjxjkf5jYJkEAqEUg18UZYxEoTdJ67tXDpXGbH9u5du41AwRPPqjFj59i3t+O3bNVKEHdGyGPOnDnywosvygPDhsm9d9/tbRcySOPsP2scOHv27EaMT5065WiL+DkE88GHH5aXtW9ng4jC4GHny5fP+VCKtytXqSJdunWTmIYNpVChQo5+Guj+5E8/lT59+kpEZIQpr1W7tnTr3l2aN23qCDuVKVNGvvl2nqOO1K0rHTt1kqNHjzr64gYJkEDqEEjVh3TgfTv/ebPAmTqnKYKYN4QbAukq3FXVA26q8W/nP3jYrjZ4yBBT9Il6oF/PnClxV+MEXrSvtlO9dtgdKoTOtkgXVK9fvy5dVVCdDfFtePinVehjY2OdDzm2s6jH7Dx/a9vdLw1Ho/gNCPekTz4RhJreeP11U9r/rrvk5MkT0lZvWI30HP/++29z0+vdu7ej+dQZM4xwr1y5UlroufTTY4cPH05wI3BU5gYJkEBACaSa5x3QWaags3FvvmlaZdDFs6q6GFi4cGGzP3/evES9DdAFRPy5Wjn1LC2Dxw1P9dKlSyZzBeUbf94odTSu3aFjR5kze7ZVNdnv3zTWjTkhFDJLbwKWXdBMmPXr15s+cfNAhgzskUcf1TXADPLll19Kvehoq3qC71y5csl777+foAw7y3/8Ue7WeH9ShhvCiy+8YKqMf+89sz6AG8b9Q4c6smPeeesteV5/DVTRecMQu8fCMBZ/Bw8YYMr2arZMp/btZdXatZIxY6r6BWY8fpBAOBMIWfGGp+1s8GjfHz/e4Vk6H/tJPcddu3Y5F4m6wAn2B6q4Q5B+3rhRIGywGdOmGaHFYqgv4m2FKBAjdrWxL78s01TQH37kEYd4IxSBfOnxmrroSbzxa2K6zsfVVq5Y4VqUaH+HxuOd7eI//5hz3OyU5md5/Jn01wusUaNG5nvdunXm2/o4efKkHFIvvXCRIlYRv0mABFKBQMiKNzxAGIR20uTJZnv211+bb9ePGdOnizuP3Llez/hwAcRzvQq4s92uC5fwQs+dO+dc7HG7QoUK5tiSJUsS1YFgwpvFYmjevHmljsaRsYCJGwy8fk92Thdon3/uOU+Hkyz35kEaeP7OVrRoUbOLMImrndIFYIq3KxXuk0BgCYTsb1tkR+APD9l8r2mAEJ839Kd/Sgwhl1tuucU0XbRwoTj/Wf0N9nLREmEWCBsE012qIPqbNHGime+Ixx6TYZpLDnv5pZfMd3r52LBhg5kKbjKuViQ+ROVazn0SIIHAEQhZ8XZG9JQ+vYjFRQhNTAoWGC0BRWhkmKbWOf/16tHDDNXNZZHReXxrG09STtRfAbiRfLdggVWc6HuiLh4iHbG9xtIRW0Z63vZt2xLV87Wgmi5IImMmELZ8+XLTTZ06dfWJ1mKOLjt17iy5k0hpdFTkBgmQgF8EQjZs4kwF4Ywvv/xC+vXvLy+/+qrUj39K0aqDB2OG3HOPtev4HqePwa9QkWoZ//DL++PfcxyzNhADP3/+vBQoWFCQ2fHXnj3WIZml6YSwbJqaWFQFLlOmTGYfIZBHNB3Qk+FxeixWNmve3FT5+KOPPFV1lOfNm88xnqNQNw4eOGBuNsjHnqIxcdw4kNpoLYY61/VlG7nx+AWC1wTM1yyZ9Rr7RugIWTFYX8A4NBIggdQjEHLi7Sl+++Lzz5sUPDxl2V295WlTpxqRAVqEMdzFaMtXKC8QKYgS8quRK+7Ofli8WNrpI/ND77vPPIpuzaFixYqO6njoZuuWLfqw0FKz8Og4gI34xVE8aGPZKxomgXjjcfovv/jf06gQRliceuYwax/52M7jmYP6USr+oSTcwP7RhUg8hHNABd3ZcLNwNmv+Ccri61jj4Rh+gXyqT6zWrl3HkTKJd7jA8Li/u37MQX6QAAn4TSBDzpsKJUyr8KJLPN6Oh23wiLsv7yjBq2Tx1CXapPbj8V6cRthViYiIEPzhhhBoQ0gKGSneLtoGenz2RwLhRiDkPO9wu4C+nC88bFcv25f2SdX9448/kjrMYyRAAgEmkCLxvvGkZIzDi/Z1Tr546772zfokQAIkEA4EUhQ2ARgrdOIrJIZMfCXG+iRAAiSQmECKxTtxVywhARIgARKwi0BY5HnbBZPjkAAJkIBdBCjedpHmOCRAAiQQQAIU7wDCZFckQAIkYBcBirddpDkOCZAACQSQAMU7gDDZFQmQAAnYRYDibRdpjkMCJEACASRA8Q4gTHZFAiRAAnYRoHjbRZrjkAAJkEAACVC8AwiTXZEACZCAXQQo3naR5jgkQAIkEEACFO8AwmRXJEACJGAXgcj8BQraNRbHIQESIAESCBABvpgqQCDZDQmQAAnYSYBhEztpcywSIAESCBABineAQLIbEiABErCTAMXbTtociwRIgAQCRIDiHSCQ7IYESIAE7CRA8baTNsciARIggQARoHgHCCS7IQESIAE7CVC87aTNsUiABEggQAQo3gECyW5IgARIwE4CFG87aXMsEiABEggQAYp3gECyGxIgARKwkwDF207aHIsESIAEAkSA4h0gkOyGBEiABOwkEJnSwaKiG0jRYsXNX1J9rFm10hxes2pFUtV4jARIgARIwAcCKRJviHZUdIxXwzjXo4B7hYyVSIAESCBZAikU7xKmY3jVngS5a48+xitHHQi4JeKe6ic7U1ZIRCBjxoxy8803y9mzZ80fKpQvX17O6P6B/fsT1XcuyJw5s+TPn1+OHz8uly5dcj4UVNt58+YVcDh27FhQzZuTJQF/CfgV894fuzfZ8SHWVujkhog3SLYNK3hHoFLlyrJ0+XL56OOPTYMyZcrI7LlzZfEPP0hkZNL35QGDBpq2jz3xhHeDpdNaPyxbJj+uXJlOZ8dpkUDqEfBLvL2dlquAI+xCCzwBeNFXrlyRM2fOyNWrV5McIGMGWy59knPgQRIggZQTSPX/B1sLm/DS98fuMzNFGS3wBE6ePCmVNGxSt1atwHfOHkmABNIVgaR/W/sxVXjbiHvfiHV7t7jpx3COpmOefVZi9+2TH/XndP8BA6RkyZJm++MJEyQiIkKGPfSQ1FRxO3zokEz56ivZuGGDoy02qlWvLl27dZNSpUrJX3v2yIIFC2SFhiYsa3LHHdK8eXP58MMPpXHjxoL91atWyfvjx4s19ldffin/fuwxuf322+WXn3+WL7/4Qg4ePGh14dN3TEyM3Nm+vRQrVkx2/PmnfP7ZZ7Jz506PfTw9apQcO3rUzMeqhBBKO+0D/fxz8aJ8OnGidSjRN2LIPXr2lHrR0bJ50yaZNnWqxMbGJqiXI0cOGTBokNRSjhe1P5z/5E8/TVDHdcfi9sH770tMgwbSvEULOXXqlLwxbpzhXLVqVRl8992SJ08eWbt2rXygPF1/PZQqXUp69+kr5ZTr5l9+kbfefNN1GO6TQNgQSNG/YQnPGaI8Y+oXDm/aHTF3HjbawQNH29Sw7SpsFy5cECzIOcd916xeLYgJ5y9QwDHs9evX5YH77pMlixebspFPPmlEyVEhfgOC+dwzz5i9t955R1q2aiVHjhyWggULmbJNKnI9unYVjH3u3Dlzk8iaNWuCbjDO4kWLEpQlt/P8iy/ojaS7qYa5ZsiQQfD9lM5z5vTpUkUFb/rMmeYG0bP7jXrbduyQM6dPS5147xsMlv/0k+TLly/BcHt275Zb9Qb12eTJ8n96w4M1btJE3tebEsZxtlFPPy1Tp0wxRSVvvVW+njNHsmXLZuZi1d2vC6RN9WbmySxuqFe0aFFHtWvXrskkvZkMGjzYUYaN3bt2SeuWLR1lvfr0kTHx18AqBGtcZyxYVlRBp5FAOBHImJoneyPWjQXLG3/eLHAGYj4Qli2//y4x6j0OHjjQeHBR9epJnptukvuHDpVa6l1DSCE8DwwbZobMlTu33KV1ISaPPPyw1KxWTSBaEMs+ffsagXCeW4ECBWXCRx9JWxXy++65x3EIXinaPPjAA2Z8eN2wt95+R+DVems4hy5du8nly5fNGBXKlZNnx4wxc37Ch0XGTyZNMsJ9+PBh6dOrl7Ro2lRW6gIfhNvZiqigvjf+fdP/a2NflajatR3n/8xzz8ltZcua6o89/rgR7vnz5sntt90mDevXl4MHDhhB7tm7t3OXbrcLFy5s+NauWVNW6U0Fwgvhxnb9qCjprV4/4valSpeWEiVuZDXhpjtazx323rvvSr06dWTEo49KlixZjHibA/wggTAjkKrinVYsIcDwRI8eOSIrV6yQdfozHIYwCbxspNY9Ony4KbO8wHNa1qZVS2mggg9hglcHbxOhCoh89Ro1TH3rY+4338irL79sQhgnTpywis13P/USF37/vRn/mdGjZcP69RIRGSFt2rZNUC+pnZIa7sG4+BXx119/mZvKF59/Lo00jNK5Y8ekmiY4VkNFEjw6tmtn5rF3714ZrOEkiLmzde7c2cwRHv2H738giJ/j/BFuwjy66i8LmCWoOCcY+mmlIZDWLVvIt8okOZs1c4bhi18HuMHB4q7GycC77jLpfghjIQwDq6c3BlinLl3MHL7TENabGmYBb/C3rqGpxA8SCDMCqRbzTkuOEB4IlmXYh23dutUqMrnNqBMRn1KH7b/2/CUdVBgRPiig4ZWcOXNKWfV4Ya5hENwU3Bk85d9/+y3BoYULF0ot9WRrq8eIEIw3hrniBoIY8Gb9FYFfEj8sWSKfqieNOLM3hjzuTJkyGYF1vcEgjIRztQxzgzXWGP60GTOsYrml8C1m27p5fT1rljz+n//IKPWE77v/flm3bp05p583bnS0SWpj3dp1jsM4P/xKOXP2jKMMG9aNBSERWHX9pQSDYDsbbpBoTyOBcCQQkuKdkv9DI2wyb8F8Rxwbi2UQYk/mfHNwrnNRPWVX+zt+sbJQoRsxctfjnvbh0T73f/8n0eqBVtUwDv6Ga7jgpRdeMHFiT+2s8uLxYYfTujDoaod0wdbZrLnlyZ3HhEWsYwhrwKzFQ3ji5/Uc7733XhX2wtL2zjvNH0In7XUbv2qSMk/cnNuoo5/ArHi9uwePEGKx5pigEXdIIMQJhGTYJCXXDHFtLEBiQa2lZpNgAax6lSry6+bNPnWXM1euRPUhurAtW7YkOpZUAcI+QzWeXqViRTOn77/7zoQPnhg50ivBQrYI7OZbbnjPzmNV0D6dbdu2bWb36aeelGr68I/1h7HLacwZsWjLpmg2TZNGjUxaItYFEAIpXKSIPKnbqWE7dBEWhiwhZ8OvIcs7dy7nNgmEAwGKd/xVRlofDOEQpAjCChQsKK4iZw4k8QEv8Kn//tdRAwLTUxcKYZ5CLY7KThstNNPiK03T66+xYBjm9JAuriLUgDFyaEgnOYuLizMP7OTSG0pnjRtbhjh/dL1oa9d8r9YwCmyohkKcPdmmzZrJLM0usbJB3tNUv0maoYKFWXjjiIu/oxk4sFucbhJITaxYqZIp9/fDWrNAmAbpnpa9/Oqr1ia/SSDsCIRk2CQlV3HB/PnSqnVr6aapeUXUi8T7Pho0bJgg3dDbfiG4UZo5AS++Tt26RuiQmrdUH1v31pAqh8VG/CEGv1W99hidD0QTMWF4u97YSy++KC/g76WXzE0E4o/4dsaIhPftaSrCd6uXjwXJlSrkWJBEvB3zx4Ll2FdeMcMV1BtaZf1FsnjpUsECYqZMkRo772SOIb8d1kXz5DEmQiRVVcCTCj+ZBsl8YKH2Hg3T4Gb605o1Jje/tGajuGbMJNMND5NASBFI+P/gUDk1l0UsK856TT1RV7OOQYjgRULUINrNNHSCuLCVVaErY6apFU+HV+vO8IIkZKsgte4OTcvLnj277FIh7qrZHL4YHsR5UsMjuInU1wyTu1W88OsAfSFzBGbN3ZqT1b/zEh6yRz764AP5559/TMwcfUH4EfqAWW3RV7s2bWTbH38I4t7IZa+rNyAsjv5H0wORygcbpOmUv/36qxH2XpoaiDx09PHC888Lwjow/EpAGTJlLOG2xnHHzToP01g/4uLiF5vjmaNNJ11cxcNCuKHg2iDfHA8GYQwaCYQjgVR9SMcVKN5pgqcuU/MhHdcxfd1HyKCcZpjAu3XN0EiuLzykA/FGvjJischP/lNTDa3FvgoVKkhrFUhv7O233nII302an463B27fvt0h2N704VoHT2n+ozcDxNKTMzzFeFzPxdPb+sAJNyhPdZCDjcVEV2FObtzkjqNfPP0Kru5uBMm153ESCBUCDJu4XEmIzR/qffpr8DidUxPRH/K84UF7Y0gptFLmkOpopTt609ZTHdfH3D3VQ/n2+AVMT3XAKak6qfWaWfQbiOvj6bxYTgLBQiBF4n3jSckYhxft68laL6jytV1Q1I//qe9urnhIaLfGvpMzhBg8ebzJteVxEiCB8CCQorAJ0FjvN/EVU3oOmfh6Lq71EdqAZxgIL9m1b+6TAAmQgDOBFIu3cyfcJgESIAESsJdAaGab2MuQo5EACZCA7QQo3rYj54AkQAIk4D8Birf/DNkDCZAACdhOgOJtO3IOSAIkQAL+E6B4+8+QPZAACZCA7QQo3rYj54AkQAIk4D8Birf/DNkDCZAACdhO4P8BMlK3mAV/InAAAAAASUVORK5CYII=;" parent="1" vertex="1">
                    <mxGeometry x="230" width="256" height="520" as="geometry"/>
                </mxCell>
                <mxCell id="3" value="&lt;font color=&quot;#ff0000&quot;&gt;&lt;b&gt;1&lt;/b&gt;&lt;/font&gt;" style="text;strokeColor=none;align=center;fillColor=#FFFFFF;html=1;verticalAlign=middle;whiteSpace=wrap;rounded=1;arcSize=0;" parent="1" vertex="1">
                    <mxGeometry x="360" y="46" width="30" height="20" as="geometry"/>
                </mxCell>
                <mxCell id="4" value="&lt;font color=&quot;#ff0000&quot;&gt;&lt;b&gt;2&lt;/b&gt;&lt;/font&gt;" style="text;strokeColor=none;align=center;fillColor=#FFFFFF;html=1;verticalAlign=middle;whiteSpace=wrap;rounded=1;arcSize=0;" parent="1" vertex="1">
                    <mxGeometry x="380" y="77" width="30" height="20" as="geometry"/>
                </mxCell>
                <mxCell id="5" value="&lt;font color=&quot;#ff0000&quot;&gt;&lt;b&gt;3&lt;/b&gt;&lt;/font&gt;" style="text;strokeColor=none;align=center;fillColor=#FFFFFF;html=1;verticalAlign=middle;whiteSpace=wrap;rounded=1;arcSize=0;" parent="1" vertex="1">
                    <mxGeometry x="320" y="110" width="30" height="20" as="geometry"/>
                </mxCell>
                <mxCell id="8" style="edgeStyle=none;html=1;exitX=0.5;exitY=1;exitDx=0;exitDy=0;fontColor=#FF0000;entryX=0.82;entryY=0.269;entryDx=0;entryDy=0;entryPerimeter=0;fillColor=#f5f5f5;strokeColor=#666666;strokeWidth=2;" parent="1" source="6" target="2" edge="1">
                    <mxGeometry relative="1" as="geometry"/>
                </mxCell>
                <mxCell id="6" value="&lt;font color=&quot;#ff0000&quot;&gt;&lt;b&gt;4&lt;/b&gt;&lt;/font&gt;" style="text;strokeColor=none;align=center;fillColor=#FFFFFF;html=1;verticalAlign=middle;whiteSpace=wrap;rounded=1;arcSize=0;" parent="1" vertex="1">
                    <mxGeometry x="440" y="97" width="30" height="20" as="geometry"/>
                </mxCell>
                <mxCell id="9" value="&lt;font color=&quot;#ff0000&quot;&gt;&lt;b&gt;5&lt;/b&gt;&lt;/font&gt;" style="text;strokeColor=none;align=center;fillColor=#FFFFFF;html=1;verticalAlign=middle;whiteSpace=wrap;rounded=1;arcSize=0;" parent="1" vertex="1">
                    <mxGeometry x="358" y="174" width="30" height="20" as="geometry"/>
                </mxCell>
                <mxCell id="10" value="&lt;font color=&quot;#ff0000&quot;&gt;&lt;b&gt;6&lt;/b&gt;&lt;/font&gt;" style="text;strokeColor=none;align=center;fillColor=#FFFFFF;html=1;verticalAlign=middle;whiteSpace=wrap;rounded=1;arcSize=0;" parent="1" vertex="1">
                    <mxGeometry x="369" y="206" width="30" height="20" as="geometry"/>
                </mxCell>
                <mxCell id="11" value="&lt;font color=&quot;#ff0000&quot;&gt;&lt;b&gt;7&lt;/b&gt;&lt;/font&gt;" style="text;strokeColor=none;align=center;fillColor=#FFFFFF;html=1;verticalAlign=middle;whiteSpace=wrap;rounded=1;arcSize=0;" parent="1" vertex="1">
                    <mxGeometry x="300" y="239" width="30" height="20" as="geometry"/>
                </mxCell>
                <mxCell id="15" style="edgeStyle=none;html=1;exitX=0;exitY=0;exitDx=0;exitDy=0;entryX=0.313;entryY=0.538;entryDx=0;entryDy=0;entryPerimeter=0;fontColor=#FF0000;fillColor=#f5f5f5;strokeColor=#666666;strokeWidth=2;" parent="1" source="12" target="2" edge="1">
                    <mxGeometry relative="1" as="geometry"/>
                </mxCell>
                <mxCell id="12" value="&lt;font color=&quot;#ff0000&quot;&gt;&lt;b&gt;8&lt;/b&gt;&lt;/font&gt;" style="text;strokeColor=none;align=center;fillColor=#FFFFFF;html=1;verticalAlign=middle;whiteSpace=wrap;rounded=1;arcSize=0;" parent="1" vertex="1">
                    <mxGeometry x="399" y="320" width="30" height="20" as="geometry"/>
                </mxCell>
                <mxCell id="17" style="edgeStyle=none;html=1;exitX=0;exitY=0.25;exitDx=0;exitDy=0;entryX=0.313;entryY=0.538;entryDx=0;entryDy=0;entryPerimeter=0;fontColor=#FF0000;fillColor=#f5f5f5;strokeColor=#666666;strokeWidth=2;" parent="1" source="12" edge="1">
                    <mxGeometry relative="1" as="geometry">
                        <mxPoint x="418.87" y="360.24" as="sourcePoint"/>
                        <mxPoint x="329.99800000000005" y="320" as="targetPoint"/>
                    </mxGeometry>
                </mxCell>
                <mxCell id="18" style="edgeStyle=none;html=1;exitX=0;exitY=0.5;exitDx=0;exitDy=0;entryX=0.313;entryY=0.538;entryDx=0;entryDy=0;entryPerimeter=0;fontColor=#FF0000;fillColor=#f5f5f5;strokeColor=#666666;strokeWidth=2;" parent="1" source="12" edge="1">
                    <mxGeometry relative="1" as="geometry">
                        <mxPoint x="378.87" y="390.24" as="sourcePoint"/>
                        <mxPoint x="289.99800000000005" y="350" as="targetPoint"/>
                    </mxGeometry>
                </mxCell>
                <mxCell id="19" style="edgeStyle=none;html=1;exitX=0;exitY=0.75;exitDx=0;exitDy=0;entryX=0.313;entryY=0.538;entryDx=0;entryDy=0;entryPerimeter=0;fontColor=#FF0000;fillColor=#f5f5f5;strokeColor=#666666;strokeWidth=2;" parent="1" source="12" edge="1">
                    <mxGeometry relative="1" as="geometry">
                        <mxPoint x="398.87" y="420.24" as="sourcePoint"/>
                        <mxPoint x="309.99800000000005" y="380" as="targetPoint"/>
                    </mxGeometry>
                </mxCell>
                <mxCell id="20" value="&lt;font color=&quot;#ff0000&quot;&gt;&lt;b&gt;9&lt;/b&gt;&lt;/font&gt;" style="text;strokeColor=none;align=center;fillColor=#FFFFFF;html=1;verticalAlign=middle;whiteSpace=wrap;rounded=1;arcSize=0;" parent="1" vertex="1">
                    <mxGeometry x="350" y="431" width="30" height="20" as="geometry"/>
                </mxCell>
                <mxCell id="21" value="&lt;font color=&quot;#ff0000&quot;&gt;&lt;b&gt;10&lt;/b&gt;&lt;/font&gt;" style="text;strokeColor=none;align=center;fillColor=#FFFFFF;html=1;verticalAlign=middle;whiteSpace=wrap;rounded=1;arcSize=0;" parent="1" vertex="1">
                    <mxGeometry x="370" y="494" width="30" height="20" as="geometry"/>
                </mxCell>
            </root>
        </mxGraphModel>
    </diagram>
</mxfile>